<svg xmlns="http://www.w3.org/2000/svg" xmlns:xlink="http://www.w3.org/1999/xlink" width="300" zoomAndPan="magnify" viewBox="0 0 224.87999 44.999999" height="60" preserveAspectRatio="xMidYMid meet" version="1.0"><defs><g/><clipPath id="id1"><path d="M 1 0.0117188 L 41 0.0117188 L 41 44.988281 L 1 44.988281 Z M 1 0.0117188 " clip-rule="nonzero"/></clipPath><clipPath id="id2"><path d="M 14.851562 6.554688 L 27.59375 6.554688 L 27.59375 22.296875 L 14.851562 22.296875 Z M 14.851562 6.554688 " clip-rule="nonzero"/></clipPath><clipPath id="id3"><path d="M 10.933594 25.242188 L 21.425781 25.242188 L 21.425781 34.238281 L 10.933594 34.238281 Z M 10.933594 25.242188 " clip-rule="nonzero"/></clipPath><clipPath id="id4"><path d="M 20.75 25.183594 L 31.246094 25.183594 L 31.246094 34.179688 L 20.75 34.179688 Z M 20.75 25.183594 " clip-rule="nonzero"/></clipPath></defs><g clip-path="url(#id1)"><path fill="#ffffff" d="M 40.679688 33.742188 L 40.679688 11.253906 L 21.191406 0.0117188 L 1.699219 11.253906 L 1.699219 33.742188 L 21.191406 44.984375 L 40.679688 33.742188 M 2.757812 33.128906 L 2.757812 11.867188 L 21.191406 1.234375 L 39.625 11.867188 L 39.625 33.128906 L 21.191406 43.757812 L 2.757812 33.128906 " fill-opacity="1" fill-rule="nonzero"/></g><g clip-path="url(#id2)"><path fill="#ffffff" d="M 21.300781 6.554688 C 19.515625 6.554688 18.003906 7 16.921875 7.816406 C 15.839844 8.632812 15.207031 9.832031 15.207031 11.230469 C 15.207031 12.367188 15.574219 13.332031 16.320312 14.058594 C 17.066406 14.789062 18.167969 15.277344 19.605469 15.578125 L 19.601562 15.578125 L 21.597656 16.007812 C 22.558594 16.214844 23.195312 16.46875 23.5625 16.746094 C 23.925781 17.027344 24.054688 17.304688 24.054688 17.738281 C 24.054688 18.226562 23.816406 18.660156 23.355469 18.996094 C 22.890625 19.332031 22.207031 19.558594 21.363281 19.558594 C 19.601562 19.558594 18.464844 18.777344 18.253906 17.777344 C 18.214844 17.597656 18.097656 17.503906 17.90625 17.503906 L 15.207031 17.503906 C 15.101562 17.503906 15.015625 17.542969 14.945312 17.613281 C 14.875 17.6875 14.84375 17.777344 14.851562 17.875 C 14.96875 19.226562 15.667969 20.359375 16.777344 21.121094 C 17.890625 21.886719 19.40625 22.292969 21.195312 22.292969 C 23.117188 22.292969 24.707031 21.855469 25.832031 21.027344 C 26.957031 20.199219 27.59375 18.964844 27.59375 17.503906 C 27.59375 16.34375 27.230469 15.363281 26.441406 14.617188 C 25.652344 13.871094 24.480469 13.367188 22.878906 13.03125 L 21.109375 12.65625 C 20.179688 12.457031 19.5625 12.21875 19.210938 11.957031 C 18.863281 11.699219 18.746094 11.449219 18.746094 11.050781 C 18.746094 10.542969 18.960938 10.15625 19.382812 9.859375 C 19.808594 9.566406 20.460938 9.375 21.289062 9.375 C 22.054688 9.375 22.660156 9.554688 23.09375 9.84375 C 23.523438 10.136719 23.796875 10.542969 23.894531 11.066406 C 23.933594 11.253906 24.046875 11.34375 24.242188 11.34375 L 26.886719 11.34375 C 26.988281 11.34375 27.078125 11.308594 27.148438 11.238281 C 27.214844 11.164062 27.246094 11.078125 27.242188 10.980469 C 27.144531 9.675781 26.488281 8.550781 25.441406 7.773438 C 24.390625 6.996094 22.960938 6.554688 21.300781 6.554688 Z M 21.300781 7.238281 C 22.832031 7.238281 24.105469 7.644531 25.007812 8.316406 C 25.808594 8.910156 26.300781 9.714844 26.46875 10.660156 L 24.480469 10.660156 C 24.304688 10.105469 23.988281 9.617188 23.5 9.285156 C 22.921875 8.894531 22.167969 8.691406 21.289062 8.691406 C 20.351562 8.691406 19.550781 8.898438 18.96875 9.304688 C 18.386719 9.714844 18.039062 10.339844 18.039062 11.050781 C 18.039062 11.617188 18.289062 12.132812 18.78125 12.5 C 19.273438 12.867188 19.980469 13.113281 20.957031 13.324219 L 22.726562 13.699219 C 22.726562 13.699219 22.730469 13.699219 22.730469 13.703125 C 24.253906 14.019531 25.296875 14.492188 25.945312 15.105469 C 26.597656 15.71875 26.886719 16.476562 26.886719 17.503906 C 26.886719 18.78125 26.367188 19.773438 25.402344 20.484375 C 24.4375 21.195312 23.003906 21.609375 21.195312 21.609375 C 19.519531 21.609375 18.148438 21.222656 17.1875 20.566406 C 16.335938 19.980469 15.8125 19.175781 15.632812 18.1875 L 17.6875 18.1875 C 18.121094 19.421875 19.519531 20.242188 21.363281 20.242188 C 22.335938 20.242188 23.171875 19.988281 23.78125 19.542969 C 24.386719 19.101562 24.761719 18.453125 24.761719 17.738281 C 24.761719 17.140625 24.511719 16.597656 24 16.210938 C 23.492188 15.820312 22.761719 15.558594 21.75 15.339844 C 21.75 15.339844 21.75 15.339844 21.75 15.335938 L 19.757812 14.910156 C 19.757812 14.910156 19.753906 14.910156 19.753906 14.910156 C 18.398438 14.625 17.4375 14.175781 16.824219 13.578125 C 16.210938 12.980469 15.914062 12.230469 15.914062 11.230469 C 15.914062 10.023438 16.429688 9.054688 17.355469 8.355469 C 18.285156 7.65625 19.640625 7.238281 21.300781 7.238281 Z M 21.300781 7.238281 " fill-opacity="1" fill-rule="nonzero"/></g><g clip-path="url(#id3)"><path fill="#ffffff" d="M 11.140625 25.253906 C 11.074219 25.253906 11.019531 25.277344 10.976562 25.328125 C 10.9375 25.382812 10.921875 25.4375 10.9375 25.503906 L 13.035156 34.070312 C 13.058594 34.175781 13.125 34.230469 13.238281 34.230469 L 14.492188 34.230469 C 14.601562 34.230469 14.667969 34.179688 14.695312 34.078125 L 16.167969 28.695312 L 17.644531 34.078125 C 17.671875 34.179688 17.738281 34.230469 17.84375 34.230469 L 19.101562 34.230469 C 19.210938 34.230469 19.28125 34.175781 19.304688 34.070312 L 21.402344 25.503906 C 21.417969 25.4375 21.402344 25.382812 21.359375 25.328125 C 21.320312 25.277344 21.265625 25.253906 21.195312 25.253906 L 19.691406 25.253906 C 19.578125 25.253906 19.511719 25.304688 19.484375 25.410156 L 18.316406 30.199219 L 17 25.402344 C 16.972656 25.300781 16.90625 25.253906 16.796875 25.253906 L 15.542969 25.253906 C 15.433594 25.253906 15.367188 25.300781 15.339844 25.402344 L 14.023438 30.199219 L 12.851562 25.410156 C 12.828125 25.304688 12.761719 25.253906 12.648438 25.253906 Z M 11.40625 25.660156 L 12.484375 25.660156 L 13.792969 31.011719 C 13.816406 31.117188 13.886719 31.167969 13.996094 31.167969 L 14.03125 31.167969 C 14.136719 31.167969 14.207031 31.117188 14.234375 31.015625 L 15.703125 25.660156 L 16.636719 25.660156 L 18.105469 31.015625 C 18.132812 31.117188 18.203125 31.167969 18.308594 31.167969 L 18.34375 31.167969 C 18.453125 31.167969 18.519531 31.117188 18.546875 31.011719 L 19.855469 25.660156 L 20.933594 25.660156 L 18.9375 33.820312 L 18.007812 33.820312 L 16.371094 27.851562 C 16.34375 27.75 16.277344 27.699219 16.167969 27.699219 C 16.0625 27.699219 15.996094 27.75 15.96875 27.851562 L 14.332031 33.820312 L 13.402344 33.820312 Z M 11.40625 25.660156 " fill-opacity="1" fill-rule="nonzero"/></g><g clip-path="url(#id4)"><path fill="#ffffff" d="M 31.035156 34.171875 C 31.105469 34.171875 31.160156 34.144531 31.199219 34.09375 C 31.242188 34.039062 31.253906 33.984375 31.238281 33.917969 L 29.144531 25.351562 C 29.121094 25.246094 29.050781 25.195312 28.941406 25.195312 L 27.683594 25.195312 C 27.578125 25.195312 27.507812 25.242188 27.480469 25.34375 L 26.007812 30.726562 L 24.535156 25.34375 C 24.507812 25.242188 24.441406 25.195312 24.332031 25.195312 L 23.078125 25.195312 C 22.964844 25.195312 22.898438 25.246094 22.871094 25.351562 L 20.777344 33.917969 C 20.761719 33.984375 20.773438 34.039062 20.816406 34.09375 C 20.859375 34.144531 20.914062 34.171875 20.980469 34.171875 L 22.488281 34.171875 C 22.597656 34.171875 22.667969 34.117188 22.691406 34.011719 L 23.863281 29.222656 L 25.179688 34.019531 C 25.207031 34.121094 25.273438 34.171875 25.378906 34.171875 L 26.636719 34.171875 C 26.746094 34.171875 26.8125 34.121094 26.839844 34.019531 L 28.152344 29.222656 L 29.324219 34.011719 C 29.351562 34.117188 29.417969 34.171875 29.527344 34.171875 Z M 30.769531 33.761719 L 29.695312 33.761719 L 28.386719 28.410156 C 28.359375 28.304688 28.292969 28.253906 28.183594 28.253906 L 28.148438 28.253906 C 28.039062 28.253906 27.972656 28.304688 27.945312 28.40625 L 26.476562 33.761719 L 25.542969 33.761719 L 24.074219 28.40625 C 24.042969 28.304688 23.976562 28.253906 23.871094 28.253906 L 23.835938 28.253906 C 23.726562 28.253906 23.65625 28.304688 23.632812 28.410156 L 22.324219 33.761719 L 21.246094 33.761719 L 23.242188 25.601562 L 24.171875 25.601562 L 25.804688 31.570312 C 25.832031 31.671875 25.902344 31.722656 26.007812 31.722656 C 26.117188 31.722656 26.183594 31.671875 26.210938 31.570312 L 27.84375 25.601562 L 28.777344 25.601562 Z M 30.769531 33.761719 " fill-opacity="1" fill-rule="nonzero"/></g><g fill="#ffffff" fill-opacity="1"><g transform="translate(60.391484, 19.754376)"><g><path d="M 3.765625 -8.6875 C 4.222656 -8.6875 4.671875 -8.617188 5.109375 -8.484375 C 5.554688 -8.347656 5.890625 -8.21875 6.109375 -8.09375 L 6.40625 -7.875 L 5.625 -6.328125 C 5.5625 -6.367188 5.472656 -6.421875 5.359375 -6.484375 C 5.253906 -6.554688 5.050781 -6.644531 4.75 -6.75 C 4.445312 -6.863281 4.164062 -6.921875 3.90625 -6.921875 C 3.570312 -6.921875 3.316406 -6.847656 3.140625 -6.703125 C 2.972656 -6.566406 2.890625 -6.382812 2.890625 -6.15625 C 2.890625 -6.039062 2.929688 -5.929688 3.015625 -5.828125 C 3.097656 -5.722656 3.238281 -5.613281 3.4375 -5.5 C 3.632812 -5.394531 3.804688 -5.304688 3.953125 -5.234375 C 4.109375 -5.160156 4.347656 -5.054688 4.671875 -4.921875 C 5.222656 -4.691406 5.691406 -4.375 6.078125 -3.96875 C 6.460938 -3.5625 6.65625 -3.101562 6.65625 -2.59375 C 6.65625 -2.101562 6.566406 -1.675781 6.390625 -1.3125 C 6.222656 -0.945312 5.984375 -0.660156 5.671875 -0.453125 C 5.367188 -0.242188 5.03125 -0.09375 4.65625 0 C 4.28125 0.101562 3.875 0.15625 3.4375 0.15625 C 3.070312 0.15625 2.707031 0.113281 2.34375 0.03125 C 1.988281 -0.0390625 1.691406 -0.128906 1.453125 -0.234375 C 1.210938 -0.347656 0.992188 -0.460938 0.796875 -0.578125 C 0.597656 -0.691406 0.457031 -0.785156 0.375 -0.859375 L 0.234375 -0.96875 L 1.203125 -2.609375 C 1.285156 -2.535156 1.398438 -2.445312 1.546875 -2.34375 C 1.691406 -2.238281 1.945312 -2.09375 2.3125 -1.90625 C 2.6875 -1.726562 3.015625 -1.640625 3.296875 -1.640625 C 4.117188 -1.640625 4.53125 -1.921875 4.53125 -2.484375 C 4.53125 -2.597656 4.5 -2.703125 4.4375 -2.796875 C 4.382812 -2.898438 4.28125 -3.003906 4.125 -3.109375 C 3.976562 -3.210938 3.847656 -3.289062 3.734375 -3.34375 C 3.617188 -3.40625 3.429688 -3.492188 3.171875 -3.609375 C 2.921875 -3.734375 2.734375 -3.828125 2.609375 -3.890625 C 2.085938 -4.140625 1.6875 -4.457031 1.40625 -4.84375 C 1.125 -5.226562 0.984375 -5.640625 0.984375 -6.078125 C 0.984375 -6.847656 1.265625 -7.472656 1.828125 -7.953125 C 2.390625 -8.441406 3.035156 -8.6875 3.765625 -8.6875 Z M 3.765625 -8.6875 "/></g></g></g><g fill="#ffffff" fill-opacity="1"><g transform="translate(67.338583, 19.754376)"><g><path d="M 0.078125 -6.828125 L 0.078125 -8.53125 L 6.078125 -8.53125 L 6.078125 -6.828125 L 4.0625 -6.828125 L 4.0625 0 L 2.109375 0 L 2.109375 -6.828125 Z M 0.078125 -6.828125 "/></g></g></g><g fill="#ffffff" fill-opacity="1"><g transform="translate(73.500003, 19.754376)"><g><path d="M 0.625 -8.53125 L 3.671875 -8.53125 C 4.492188 -8.53125 5.160156 -8.3125 5.671875 -7.875 C 6.191406 -7.4375 6.453125 -6.8125 6.453125 -6 C 6.453125 -5.375 6.296875 -4.847656 5.984375 -4.421875 C 5.671875 -3.992188 5.242188 -3.695312 4.703125 -3.53125 L 7.640625 0 L 5.171875 0 L 2.5625 -3.375 L 2.5625 0 L 0.625 0 Z M 2.5625 -4.75 L 2.796875 -4.75 C 2.972656 -4.75 3.125 -4.75 3.25 -4.75 C 3.375 -4.757812 3.515625 -4.785156 3.671875 -4.828125 C 3.828125 -4.867188 3.953125 -4.925781 4.046875 -5 C 4.148438 -5.082031 4.234375 -5.191406 4.296875 -5.328125 C 4.367188 -5.472656 4.40625 -5.648438 4.40625 -5.859375 C 4.40625 -6.066406 4.367188 -6.242188 4.296875 -6.390625 C 4.234375 -6.535156 4.148438 -6.644531 4.046875 -6.71875 C 3.953125 -6.800781 3.828125 -6.863281 3.671875 -6.90625 C 3.515625 -6.945312 3.375 -6.96875 3.25 -6.96875 C 3.125 -6.976562 2.972656 -6.984375 2.796875 -6.984375 L 2.5625 -6.984375 Z M 2.5625 -4.75 "/></g></g></g><g fill="#ffffff" fill-opacity="1"><g transform="translate(80.901967, 19.754376)"><g><path d="M 0.234375 -4.265625 C 0.234375 -5.503906 0.65625 -6.550781 1.5 -7.40625 C 2.34375 -8.257812 3.359375 -8.6875 4.546875 -8.6875 C 5.734375 -8.6875 6.742188 -8.257812 7.578125 -7.40625 C 8.410156 -6.5625 8.828125 -5.515625 8.828125 -4.265625 C 8.828125 -3.023438 8.414062 -1.976562 7.59375 -1.125 C 6.78125 -0.269531 5.765625 0.15625 4.546875 0.15625 C 3.296875 0.15625 2.265625 -0.265625 1.453125 -1.109375 C 0.640625 -1.953125 0.234375 -3.003906 0.234375 -4.265625 Z M 2.34375 -4.265625 C 2.34375 -3.816406 2.410156 -3.410156 2.546875 -3.046875 C 2.679688 -2.679688 2.921875 -2.367188 3.265625 -2.109375 C 3.609375 -1.859375 4.035156 -1.734375 4.546875 -1.734375 C 5.265625 -1.734375 5.804688 -1.976562 6.171875 -2.46875 C 6.546875 -2.96875 6.734375 -3.566406 6.734375 -4.265625 C 6.734375 -4.960938 6.546875 -5.5625 6.171875 -6.0625 C 5.796875 -6.5625 5.253906 -6.8125 4.546875 -6.8125 C 3.835938 -6.8125 3.289062 -6.5625 2.90625 -6.0625 C 2.53125 -5.5625 2.34375 -4.960938 2.34375 -4.265625 Z M 2.34375 -4.265625 "/></g></g></g><g fill="#ffffff" fill-opacity="1"><g transform="translate(89.968344, 19.754376)"><g><path d="M 2.5625 -5.296875 L 2.5625 0 L 0.625 0 L 0.625 -8.53125 L 2.5625 -8.53125 L 5.953125 -3.234375 L 5.984375 -3.234375 L 5.984375 -8.53125 L 7.921875 -8.53125 L 7.921875 0 L 5.984375 0 L 2.59375 -5.296875 Z M 2.5625 -5.296875 "/></g></g></g><g fill="#ffffff" fill-opacity="1"><g transform="translate(98.507483, 19.754376)"><g><path d="M 8.34375 -4.78125 L 8.34375 -2.921875 C 8.113281 -1.910156 7.625 -1.144531 6.875 -0.625 C 6.132812 -0.101562 5.304688 0.15625 4.390625 0.15625 C 3.242188 0.15625 2.265625 -0.273438 1.453125 -1.140625 C 0.640625 -2.003906 0.234375 -3.046875 0.234375 -4.265625 C 0.234375 -5.503906 0.628906 -6.550781 1.421875 -7.40625 C 2.210938 -8.257812 3.203125 -8.6875 4.390625 -8.6875 C 5.773438 -8.6875 6.875 -8.203125 7.6875 -7.234375 L 6.40625 -5.828125 C 5.957031 -6.566406 5.328125 -6.9375 4.515625 -6.9375 C 3.910156 -6.9375 3.394531 -6.675781 2.96875 -6.15625 C 2.550781 -5.632812 2.34375 -5.003906 2.34375 -4.265625 C 2.34375 -3.535156 2.550781 -2.914062 2.96875 -2.40625 C 3.394531 -1.894531 3.910156 -1.640625 4.515625 -1.640625 C 5.003906 -1.640625 5.429688 -1.785156 5.796875 -2.078125 C 6.171875 -2.378906 6.359375 -2.78125 6.359375 -3.28125 L 4.390625 -3.28125 L 4.390625 -4.78125 Z M 8.34375 -4.78125 "/></g></g></g><g fill="#ffffff" fill-opacity="1"><g transform="translate(107.074058, 19.754376)"><g/></g></g><g fill="#ffffff" fill-opacity="1"><g transform="translate(85.135856, 31.771879)"><g/></g></g><g fill="#ffffff" fill-opacity="1"><g transform="translate(46.433686, 30.554344)"><g><path d="M 7.359375 -4.953125 L 6.140625 0 L 4.453125 0 L 3.78125 -3.03125 L 3.078125 0 L 1.390625 0 L 0.1875 -4.953125 L 1.671875 -4.953125 L 2.25 -1.5625 L 3.03125 -4.953125 L 4.546875 -4.953125 L 5.296875 -1.59375 L 5.875 -4.953125 Z M 7.359375 -4.953125 "/></g></g></g><g fill="#ffffff" fill-opacity="1"><g transform="translate(53.97665, 30.554344)"><g><path d="M 4.15625 -2.015625 C 4.15625 -1.910156 4.144531 -1.800781 4.125 -1.6875 L 1.53125 -1.6875 C 1.539062 -1.476562 1.597656 -1.316406 1.703125 -1.203125 C 1.804688 -1.097656 1.941406 -1.046875 2.109375 -1.046875 C 2.335938 -1.046875 2.503906 -1.148438 2.609375 -1.359375 L 4.0625 -1.359375 C 4.007812 -1.085938 3.894531 -0.84375 3.71875 -0.625 C 3.539062 -0.414062 3.316406 -0.25 3.046875 -0.125 C 2.785156 -0.0078125 2.492188 0.046875 2.171875 0.046875 C 1.773438 0.046875 1.425781 -0.03125 1.125 -0.1875 C 0.832031 -0.351562 0.597656 -0.585938 0.421875 -0.890625 C 0.253906 -1.203125 0.171875 -1.5625 0.171875 -1.96875 C 0.171875 -2.382812 0.253906 -2.742188 0.421875 -3.046875 C 0.585938 -3.347656 0.820312 -3.578125 1.125 -3.734375 C 1.425781 -3.898438 1.773438 -3.984375 2.171875 -3.984375 C 2.554688 -3.984375 2.894531 -3.90625 3.1875 -3.75 C 3.488281 -3.59375 3.722656 -3.363281 3.890625 -3.0625 C 4.066406 -2.757812 4.15625 -2.410156 4.15625 -2.015625 Z M 2.75 -2.359375 C 2.75 -2.523438 2.691406 -2.65625 2.578125 -2.75 C 2.460938 -2.84375 2.320312 -2.890625 2.15625 -2.890625 C 1.988281 -2.890625 1.847656 -2.84375 1.734375 -2.75 C 1.628906 -2.664062 1.5625 -2.535156 1.53125 -2.359375 Z M 2.75 -2.359375 "/></g></g></g><g fill="#ffffff" fill-opacity="1"><g transform="translate(58.294929, 30.554344)"><g><path d="M 0.171875 -1.96875 C 0.171875 -2.375 0.242188 -2.726562 0.390625 -3.03125 C 0.535156 -3.34375 0.734375 -3.578125 0.984375 -3.734375 C 1.242188 -3.898438 1.53125 -3.984375 1.84375 -3.984375 C 2.113281 -3.984375 2.347656 -3.925781 2.546875 -3.8125 C 2.742188 -3.707031 2.894531 -3.566406 3 -3.390625 L 3 -3.9375 L 4.375 -3.9375 L 4.375 0 L 3 0 L 3 -0.546875 C 2.894531 -0.367188 2.742188 -0.222656 2.546875 -0.109375 C 2.347656 -0.00390625 2.113281 0.046875 1.84375 0.046875 C 1.53125 0.046875 1.242188 -0.03125 0.984375 -0.1875 C 0.734375 -0.351562 0.535156 -0.585938 0.390625 -0.890625 C 0.242188 -1.203125 0.171875 -1.5625 0.171875 -1.96875 Z M 3 -1.96875 C 3 -2.21875 2.929688 -2.414062 2.796875 -2.5625 C 2.660156 -2.707031 2.488281 -2.78125 2.28125 -2.78125 C 2.082031 -2.78125 1.914062 -2.707031 1.78125 -2.5625 C 1.644531 -2.425781 1.578125 -2.226562 1.578125 -1.96875 C 1.578125 -1.71875 1.644531 -1.519531 1.78125 -1.375 C 1.914062 -1.226562 2.082031 -1.15625 2.28125 -1.15625 C 2.488281 -1.15625 2.660156 -1.222656 2.796875 -1.359375 C 2.929688 -1.503906 3 -1.707031 3 -1.96875 Z M 3 -1.96875 "/></g></g></g><g fill="#ffffff" fill-opacity="1"><g transform="translate(63.061861, 30.554344)"><g><path d="M 1.765625 -5.1875 L 1.765625 0 L 0.390625 0 L 0.390625 -5.1875 Z M 1.765625 -5.1875 "/></g></g></g><g fill="#ffffff" fill-opacity="1"><g transform="translate(65.221001, 30.554344)"><g><path d="M 2.71875 -1.171875 L 2.71875 0 L 2.125 0 C 1.113281 0 0.609375 -0.5 0.609375 -1.5 L 0.609375 -2.796875 L 0.125 -2.796875 L 0.125 -3.9375 L 0.609375 -3.9375 L 0.609375 -4.890625 L 2 -4.890625 L 2 -3.9375 L 2.703125 -3.9375 L 2.703125 -2.796875 L 2 -2.796875 L 2 -1.46875 C 2 -1.363281 2.019531 -1.285156 2.0625 -1.234375 C 2.113281 -1.191406 2.195312 -1.171875 2.3125 -1.171875 Z M 2.71875 -1.171875 "/></g></g></g><g fill="#ffffff" fill-opacity="1"><g transform="translate(68.172288, 30.554344)"><g><path d="M 2.984375 -3.96875 C 3.429688 -3.96875 3.785156 -3.816406 4.046875 -3.515625 C 4.316406 -3.210938 4.453125 -2.804688 4.453125 -2.296875 L 4.453125 0 L 3.078125 0 L 3.078125 -2.109375 C 3.078125 -2.335938 3.015625 -2.515625 2.890625 -2.640625 C 2.773438 -2.765625 2.617188 -2.828125 2.421875 -2.828125 C 2.222656 -2.828125 2.0625 -2.765625 1.9375 -2.640625 C 1.820312 -2.515625 1.765625 -2.335938 1.765625 -2.109375 L 1.765625 0 L 0.390625 0 L 0.390625 -5.1875 L 1.765625 -5.1875 L 1.765625 -3.375 C 1.890625 -3.550781 2.054688 -3.691406 2.265625 -3.796875 C 2.472656 -3.910156 2.710938 -3.96875 2.984375 -3.96875 Z M 2.984375 -3.96875 "/></g></g></g><g fill="#ffffff" fill-opacity="1"><g transform="translate(72.981275, 30.554344)"><g/></g></g><g fill="#ffffff" fill-opacity="1"><g transform="translate(74.320224, 30.554344)"><g><path d="M 6.171875 -4.953125 L 6.171875 0 L 4.796875 0 L 4.796875 -2.734375 L 3.859375 0 L 2.703125 0 L 1.765625 -2.75 L 1.765625 0 L 0.390625 0 L 0.390625 -4.953125 L 2.0625 -4.953125 L 3.296875 -1.734375 L 4.515625 -4.953125 Z M 6.171875 -4.953125 "/></g></g></g><g fill="#ffffff" fill-opacity="1"><g transform="translate(80.874748, 30.554344)"><g><path d="M 0.171875 -1.96875 C 0.171875 -2.375 0.242188 -2.726562 0.390625 -3.03125 C 0.535156 -3.34375 0.734375 -3.578125 0.984375 -3.734375 C 1.242188 -3.898438 1.53125 -3.984375 1.84375 -3.984375 C 2.113281 -3.984375 2.347656 -3.925781 2.546875 -3.8125 C 2.742188 -3.707031 2.894531 -3.566406 3 -3.390625 L 3 -3.9375 L 4.375 -3.9375 L 4.375 0 L 3 0 L 3 -0.546875 C 2.894531 -0.367188 2.742188 -0.222656 2.546875 -0.109375 C 2.347656 -0.00390625 2.113281 0.046875 1.84375 0.046875 C 1.53125 0.046875 1.242188 -0.03125 0.984375 -0.1875 C 0.734375 -0.351562 0.535156 -0.585938 0.390625 -0.890625 C 0.242188 -1.203125 0.171875 -1.5625 0.171875 -1.96875 Z M 3 -1.96875 C 3 -2.21875 2.929688 -2.414062 2.796875 -2.5625 C 2.660156 -2.707031 2.488281 -2.78125 2.28125 -2.78125 C 2.082031 -2.78125 1.914062 -2.707031 1.78125 -2.5625 C 1.644531 -2.425781 1.578125 -2.226562 1.578125 -1.96875 C 1.578125 -1.71875 1.644531 -1.519531 1.78125 -1.375 C 1.914062 -1.226562 2.082031 -1.15625 2.28125 -1.15625 C 2.488281 -1.15625 2.660156 -1.222656 2.796875 -1.359375 C 2.929688 -1.503906 3 -1.707031 3 -1.96875 Z M 3 -1.96875 "/></g></g></g><g fill="#ffffff" fill-opacity="1"><g transform="translate(85.64168, 30.554344)"><g><path d="M 2.96875 -3.96875 C 3.414062 -3.96875 3.773438 -3.816406 4.046875 -3.515625 C 4.316406 -3.210938 4.453125 -2.804688 4.453125 -2.296875 L 4.453125 0 L 3.078125 0 L 3.078125 -2.109375 C 3.078125 -2.335938 3.015625 -2.515625 2.890625 -2.640625 C 2.773438 -2.765625 2.617188 -2.828125 2.421875 -2.828125 C 2.222656 -2.828125 2.0625 -2.765625 1.9375 -2.640625 C 1.820312 -2.515625 1.765625 -2.335938 1.765625 -2.109375 L 1.765625 0 L 0.390625 0 L 0.390625 -3.9375 L 1.765625 -3.9375 L 1.765625 -3.375 C 1.890625 -3.550781 2.050781 -3.691406 2.25 -3.796875 C 2.457031 -3.910156 2.695312 -3.96875 2.96875 -3.96875 Z M 2.96875 -3.96875 "/></g></g></g><g fill="#ffffff" fill-opacity="1"><g transform="translate(90.450667, 30.554344)"><g><path d="M 0.171875 -1.96875 C 0.171875 -2.375 0.242188 -2.726562 0.390625 -3.03125 C 0.535156 -3.34375 0.734375 -3.578125 0.984375 -3.734375 C 1.242188 -3.898438 1.53125 -3.984375 1.84375 -3.984375 C 2.113281 -3.984375 2.347656 -3.925781 2.546875 -3.8125 C 2.742188 -3.707031 2.894531 -3.566406 3 -3.390625 L 3 -3.9375 L 4.375 -3.9375 L 4.375 0 L 3 0 L 3 -0.546875 C 2.894531 -0.367188 2.742188 -0.222656 2.546875 -0.109375 C 2.347656 -0.00390625 2.113281 0.046875 1.84375 0.046875 C 1.53125 0.046875 1.242188 -0.03125 0.984375 -0.1875 C 0.734375 -0.351562 0.535156 -0.585938 0.390625 -0.890625 C 0.242188 -1.203125 0.171875 -1.5625 0.171875 -1.96875 Z M 3 -1.96875 C 3 -2.21875 2.929688 -2.414062 2.796875 -2.5625 C 2.660156 -2.707031 2.488281 -2.78125 2.28125 -2.78125 C 2.082031 -2.78125 1.914062 -2.707031 1.78125 -2.5625 C 1.644531 -2.425781 1.578125 -2.226562 1.578125 -1.96875 C 1.578125 -1.71875 1.644531 -1.519531 1.78125 -1.375 C 1.914062 -1.226562 2.082031 -1.15625 2.28125 -1.15625 C 2.488281 -1.15625 2.660156 -1.222656 2.796875 -1.359375 C 2.929688 -1.503906 3 -1.707031 3 -1.96875 Z M 3 -1.96875 "/></g></g></g><g fill="#ffffff" fill-opacity="1"><g transform="translate(95.217598, 30.554344)"><g><path d="M 1.84375 -3.984375 C 2.113281 -3.984375 2.347656 -3.925781 2.546875 -3.8125 C 2.742188 -3.707031 2.894531 -3.566406 3 -3.390625 L 3 -3.9375 L 4.375 -3.9375 L 4.375 -0.046875 C 4.375 0.328125 4.300781 0.660156 4.15625 0.953125 C 4.019531 1.253906 3.800781 1.492188 3.5 1.671875 C 3.207031 1.847656 2.835938 1.9375 2.390625 1.9375 C 1.773438 1.9375 1.285156 1.789062 0.921875 1.5 C 0.554688 1.21875 0.347656 0.832031 0.296875 0.34375 L 1.65625 0.34375 C 1.6875 0.46875 1.753906 0.566406 1.859375 0.640625 C 1.972656 0.710938 2.117188 0.75 2.296875 0.75 C 2.765625 0.75 3 0.484375 3 -0.046875 L 3 -0.546875 C 2.894531 -0.367188 2.742188 -0.222656 2.546875 -0.109375 C 2.347656 -0.00390625 2.113281 0.046875 1.84375 0.046875 C 1.53125 0.046875 1.242188 -0.03125 0.984375 -0.1875 C 0.734375 -0.351562 0.535156 -0.585938 0.390625 -0.890625 C 0.242188 -1.203125 0.171875 -1.5625 0.171875 -1.96875 C 0.171875 -2.375 0.242188 -2.726562 0.390625 -3.03125 C 0.535156 -3.34375 0.734375 -3.578125 0.984375 -3.734375 C 1.242188 -3.898438 1.53125 -3.984375 1.84375 -3.984375 Z M 3 -1.96875 C 3 -2.21875 2.929688 -2.414062 2.796875 -2.5625 C 2.660156 -2.707031 2.488281 -2.78125 2.28125 -2.78125 C 2.082031 -2.78125 1.914062 -2.707031 1.78125 -2.5625 C 1.644531 -2.425781 1.578125 -2.226562 1.578125 -1.96875 C 1.578125 -1.71875 1.644531 -1.519531 1.78125 -1.375 C 1.914062 -1.226562 2.082031 -1.15625 2.28125 -1.15625 C 2.488281 -1.15625 2.660156 -1.222656 2.796875 -1.359375 C 2.929688 -1.503906 3 -1.707031 3 -1.96875 Z M 3 -1.96875 "/></g></g></g><g fill="#ffffff" fill-opacity="1"><g transform="translate(99.98453, 30.554344)"><g><path d="M 4.15625 -2.015625 C 4.15625 -1.910156 4.144531 -1.800781 4.125 -1.6875 L 1.53125 -1.6875 C 1.539062 -1.476562 1.597656 -1.316406 1.703125 -1.203125 C 1.804688 -1.097656 1.941406 -1.046875 2.109375 -1.046875 C 2.335938 -1.046875 2.503906 -1.148438 2.609375 -1.359375 L 4.0625 -1.359375 C 4.007812 -1.085938 3.894531 -0.84375 3.71875 -0.625 C 3.539062 -0.414062 3.316406 -0.25 3.046875 -0.125 C 2.785156 -0.0078125 2.492188 0.046875 2.171875 0.046875 C 1.773438 0.046875 1.425781 -0.03125 1.125 -0.1875 C 0.832031 -0.351562 0.597656 -0.585938 0.421875 -0.890625 C 0.253906 -1.203125 0.171875 -1.5625 0.171875 -1.96875 C 0.171875 -2.382812 0.253906 -2.742188 0.421875 -3.046875 C 0.585938 -3.347656 0.820312 -3.578125 1.125 -3.734375 C 1.425781 -3.898438 1.773438 -3.984375 2.171875 -3.984375 C 2.554688 -3.984375 2.894531 -3.90625 3.1875 -3.75 C 3.488281 -3.59375 3.722656 -3.363281 3.890625 -3.0625 C 4.066406 -2.757812 4.15625 -2.410156 4.15625 -2.015625 Z M 2.75 -2.359375 C 2.75 -2.523438 2.691406 -2.65625 2.578125 -2.75 C 2.460938 -2.84375 2.320312 -2.890625 2.15625 -2.890625 C 1.988281 -2.890625 1.847656 -2.84375 1.734375 -2.75 C 1.628906 -2.664062 1.5625 -2.535156 1.53125 -2.359375 Z M 2.75 -2.359375 "/></g></g></g><g fill="#ffffff" fill-opacity="1"><g transform="translate(104.302809, 30.554344)"><g><path d="M 5.53125 -3.96875 C 6.03125 -3.96875 6.421875 -3.816406 6.703125 -3.515625 C 6.984375 -3.222656 7.125 -2.816406 7.125 -2.296875 L 7.125 0 L 5.75 0 L 5.75 -2.109375 C 5.75 -2.316406 5.691406 -2.476562 5.578125 -2.59375 C 5.460938 -2.71875 5.300781 -2.78125 5.09375 -2.78125 C 4.894531 -2.78125 4.738281 -2.71875 4.625 -2.59375 C 4.507812 -2.476562 4.453125 -2.316406 4.453125 -2.109375 L 4.453125 0 L 3.078125 0 L 3.078125 -2.109375 C 3.078125 -2.316406 3.019531 -2.476562 2.90625 -2.59375 C 2.789062 -2.71875 2.628906 -2.78125 2.421875 -2.78125 C 2.222656 -2.78125 2.0625 -2.71875 1.9375 -2.59375 C 1.820312 -2.476562 1.765625 -2.316406 1.765625 -2.109375 L 1.765625 0 L 0.390625 0 L 0.390625 -3.9375 L 1.765625 -3.9375 L 1.765625 -3.421875 C 1.890625 -3.585938 2.046875 -3.71875 2.234375 -3.8125 C 2.429688 -3.914062 2.65625 -3.96875 2.90625 -3.96875 C 3.195312 -3.96875 3.457031 -3.90625 3.6875 -3.78125 C 3.914062 -3.65625 4.09375 -3.476562 4.21875 -3.25 C 4.363281 -3.46875 4.550781 -3.640625 4.78125 -3.765625 C 5.007812 -3.898438 5.257812 -3.96875 5.53125 -3.96875 Z M 5.53125 -3.96875 "/></g></g></g><g fill="#ffffff" fill-opacity="1"><g transform="translate(111.78268, 30.554344)"><g><path d="M 4.15625 -2.015625 C 4.15625 -1.910156 4.144531 -1.800781 4.125 -1.6875 L 1.53125 -1.6875 C 1.539062 -1.476562 1.597656 -1.316406 1.703125 -1.203125 C 1.804688 -1.097656 1.941406 -1.046875 2.109375 -1.046875 C 2.335938 -1.046875 2.503906 -1.148438 2.609375 -1.359375 L 4.0625 -1.359375 C 4.007812 -1.085938 3.894531 -0.84375 3.71875 -0.625 C 3.539062 -0.414062 3.316406 -0.25 3.046875 -0.125 C 2.785156 -0.0078125 2.492188 0.046875 2.171875 0.046875 C 1.773438 0.046875 1.425781 -0.03125 1.125 -0.1875 C 0.832031 -0.351562 0.597656 -0.585938 0.421875 -0.890625 C 0.253906 -1.203125 0.171875 -1.5625 0.171875 -1.96875 C 0.171875 -2.382812 0.253906 -2.742188 0.421875 -3.046875 C 0.585938 -3.347656 0.820312 -3.578125 1.125 -3.734375 C 1.425781 -3.898438 1.773438 -3.984375 2.171875 -3.984375 C 2.554688 -3.984375 2.894531 -3.90625 3.1875 -3.75 C 3.488281 -3.59375 3.722656 -3.363281 3.890625 -3.0625 C 4.066406 -2.757812 4.15625 -2.410156 4.15625 -2.015625 Z M 2.75 -2.359375 C 2.75 -2.523438 2.691406 -2.65625 2.578125 -2.75 C 2.460938 -2.84375 2.320312 -2.890625 2.15625 -2.890625 C 1.988281 -2.890625 1.847656 -2.84375 1.734375 -2.75 C 1.628906 -2.664062 1.5625 -2.535156 1.53125 -2.359375 Z M 2.75 -2.359375 "/></g></g></g><g fill="#ffffff" fill-opacity="1"><g transform="translate(116.10096, 30.554344)"><g><path d="M 2.96875 -3.96875 C 3.414062 -3.96875 3.773438 -3.816406 4.046875 -3.515625 C 4.316406 -3.210938 4.453125 -2.804688 4.453125 -2.296875 L 4.453125 0 L 3.078125 0 L 3.078125 -2.109375 C 3.078125 -2.335938 3.015625 -2.515625 2.890625 -2.640625 C 2.773438 -2.765625 2.617188 -2.828125 2.421875 -2.828125 C 2.222656 -2.828125 2.0625 -2.765625 1.9375 -2.640625 C 1.820312 -2.515625 1.765625 -2.335938 1.765625 -2.109375 L 1.765625 0 L 0.390625 0 L 0.390625 -3.9375 L 1.765625 -3.9375 L 1.765625 -3.375 C 1.890625 -3.550781 2.050781 -3.691406 2.25 -3.796875 C 2.457031 -3.910156 2.695312 -3.96875 2.96875 -3.96875 Z M 2.96875 -3.96875 "/></g></g></g><g fill="#ffffff" fill-opacity="1"><g transform="translate(120.909947, 30.554344)"><g><path d="M 2.71875 -1.171875 L 2.71875 0 L 2.125 0 C 1.113281 0 0.609375 -0.5 0.609375 -1.5 L 0.609375 -2.796875 L 0.125 -2.796875 L 0.125 -3.9375 L 0.609375 -3.9375 L 0.609375 -4.890625 L 2 -4.890625 L 2 -3.9375 L 2.703125 -3.9375 L 2.703125 -2.796875 L 2 -2.796875 L 2 -1.46875 C 2 -1.363281 2.019531 -1.285156 2.0625 -1.234375 C 2.113281 -1.191406 2.195312 -1.171875 2.3125 -1.171875 Z M 2.71875 -1.171875 "/></g></g></g></svg>