<svg xmlns="http://www.w3.org/2000/svg" xmlns:xlink="http://www.w3.org/1999/xlink" width="500" zoomAndPan="magnify" viewBox="0 0 375 374.999991" height="500" preserveAspectRatio="xMidYMid meet" version="1.0"><defs><clipPath id="id1"><path d="M 94 54.691406 L 281 54.691406 L 281 320.191406 L 94 320.191406 Z M 94 54.691406 " clip-rule="nonzero"/></clipPath></defs><path fill="rgb(100%, 100%, 100%)" d="M 336.046875 272.921875 L 336.046875 102.296875 L 187.546875 16.984375 L 39.050781 102.296875 L 39.050781 272.921875 L 187.546875 358.234375 L 336.046875 272.921875 M 47.09375 268.28125 L 47.09375 106.9375 L 187.546875 26.265625 L 328 106.9375 L 328 268.28125 L 187.546875 348.953125 L 47.09375 268.28125 " fill-opacity="1" fill-rule="nonzero"/><g clip-path="url(#id1)"><path fill="rgb(100%, 100%, 100%)" d="M 274.351562 198.683594 L 189.730469 105.085938 C 188.539062 103.773438 186.511719 103.671875 185.195312 104.859375 C 183.882812 106.050781 183.78125 108.082031 184.96875 109.398438 L 269.59375 203 C 275.851562 209.921875 275.328125 220.660156 268.429688 226.941406 C 265.070312 229.996094 260.71875 231.558594 256.191406 231.335938 C 251.660156 231.109375 247.488281 229.128906 244.445312 225.757812 L 156.644531 128.378906 C 150.261719 121.28125 146.664062 112.242188 146.507812 102.917969 C 146.503906 102.648438 146.5 102.375 146.5 102.105469 C 146.5 79.554688 164.824219 61.207031 187.351562 61.207031 C 209.875 61.207031 228.195312 79.554688 228.195312 102.105469 C 228.195312 103.878906 229.636719 105.320312 231.40625 105.320312 C 233.179688 105.320312 234.617188 103.878906 234.617188 102.105469 C 234.617188 76.007812 213.414062 54.78125 187.351562 54.78125 C 161.285156 54.78125 140.082031 76.007812 140.082031 102.105469 C 140.082031 102.414062 140.085938 102.722656 140.089844 103.027344 C 140.269531 113.898438 144.457031 124.429688 151.878906 132.683594 L 239.683594 230.0625 C 243.875 234.714844 249.628906 237.445312 255.875 237.753906 C 256.269531 237.773438 256.664062 237.78125 257.054688 237.78125 C 262.875 237.78125 268.40625 235.648438 272.746094 231.699219 C 282.257812 223.039062 282.980469 208.230469 274.351562 198.683594 Z M 234.609375 271.855469 C 234.613281 272.160156 234.617188 272.46875 234.617188 272.777344 C 234.617188 298.871094 213.414062 320.101562 187.351562 320.101562 C 161.285156 320.101562 140.082031 298.871094 140.082031 272.777344 C 140.082031 271.003906 141.519531 269.5625 143.292969 269.5625 C 145.066406 269.5625 146.5 271.003906 146.5 272.777344 C 146.5 295.328125 164.824219 313.675781 187.351562 313.675781 C 209.875 313.675781 228.195312 295.328125 228.195312 272.777344 C 228.195312 272.503906 228.195312 272.234375 228.191406 271.964844 C 228.039062 262.640625 224.4375 253.597656 218.054688 246.5 L 130.253906 149.121094 C 127.210938 145.75 123.039062 143.773438 118.507812 143.546875 C 113.980469 143.324219 109.628906 144.882812 106.269531 147.941406 C 99.371094 154.21875 98.847656 164.960938 105.105469 171.882812 L 189.730469 265.484375 C 190.917969 266.796875 190.820312 268.832031 189.503906 270.023438 C 188.191406 271.210938 186.160156 271.109375 184.96875 269.792969 L 100.347656 176.195312 C 91.71875 166.652344 92.441406 151.84375 101.953125 143.183594 C 106.582031 138.96875 112.574219 136.816406 118.824219 137.128906 C 125.074219 137.4375 130.824219 140.167969 135.015625 144.816406 L 222.824219 242.199219 C 230.246094 250.453125 234.429688 260.980469 234.609375 271.855469 " fill-opacity="1" fill-rule="nonzero"/></g></svg>