<svg xmlns="http://www.w3.org/2000/svg" xmlns:xlink="http://www.w3.org/1999/xlink" width="500" zoomAndPan="magnify" viewBox="0 0 375 374.999991" height="500" preserveAspectRatio="xMidYMid meet" version="1.0"><defs><g/><clipPath id="id1"><path d="M 150 105.09375 L 225 105.09375 L 225 210.09375 L 150 210.09375 Z M 150 105.09375 " clip-rule="nonzero"/></clipPath></defs><path fill="rgb(100%, 100%, 100%)" d="M 246.1875 191.445312 L 246.1875 123.945312 L 187.3125 90.199219 L 128.4375 123.945312 L 128.4375 191.445312 L 187.3125 225.195312 L 246.1875 191.445312 M 131.625 189.609375 L 131.625 125.78125 L 187.3125 93.871094 L 242.996094 125.78125 L 242.996094 189.609375 L 187.3125 221.523438 L 131.625 189.609375 " fill-opacity="1" fill-rule="nonzero"/><g clip-path="url(#id1)"><path fill="rgb(100%, 100%, 100%)" d="M 221.996094 162.042969 L 188.480469 125.023438 C 188.007812 124.503906 187.203125 124.464844 186.683594 124.933594 C 186.164062 125.40625 186.125 126.207031 186.59375 126.730469 L 220.113281 163.746094 C 222.589844 166.484375 222.382812 170.734375 219.652344 173.21875 C 218.320312 174.425781 216.597656 175.042969 214.804688 174.953125 C 213.007812 174.867188 211.355469 174.082031 210.152344 172.75 L 175.375 134.234375 C 172.847656 131.429688 171.421875 127.851562 171.359375 124.164062 C 171.359375 124.058594 171.359375 123.953125 171.359375 123.84375 C 171.359375 114.925781 178.617188 107.667969 187.539062 107.667969 C 196.460938 107.667969 203.714844 114.925781 203.714844 123.84375 C 203.714844 124.546875 204.285156 125.117188 204.988281 125.117188 C 205.6875 125.117188 206.257812 124.546875 206.257812 123.84375 C 206.257812 113.523438 197.859375 105.128906 187.539062 105.128906 C 177.214844 105.128906 168.816406 113.523438 168.816406 123.84375 C 168.816406 123.964844 168.816406 124.089844 168.820312 124.207031 C 168.890625 128.507812 170.546875 132.675781 173.488281 135.9375 L 208.265625 174.453125 C 209.925781 176.289062 212.203125 177.371094 214.679688 177.492188 C 214.835938 177.5 214.992188 177.503906 215.144531 177.503906 C 217.449219 177.503906 219.640625 176.660156 221.359375 175.097656 C 225.128906 171.671875 225.414062 165.816406 221.996094 162.042969 Z M 206.257812 190.980469 C 206.257812 191.101562 206.257812 191.222656 206.257812 191.34375 C 206.257812 201.664062 197.859375 210.0625 187.539062 210.0625 C 177.214844 210.0625 168.816406 201.664062 168.816406 191.34375 C 168.816406 190.644531 169.386719 190.074219 170.085938 190.074219 C 170.789062 190.074219 171.359375 190.644531 171.359375 191.34375 C 171.359375 200.261719 178.617188 207.519531 187.539062 207.519531 C 196.460938 207.519531 203.714844 200.261719 203.714844 191.34375 C 203.714844 191.238281 203.714844 191.128906 203.714844 191.023438 C 203.652344 187.335938 202.226562 183.761719 199.699219 180.953125 L 164.921875 142.441406 C 163.71875 141.105469 162.066406 140.324219 160.269531 140.234375 C 158.476562 140.144531 156.753906 140.761719 155.425781 141.972656 C 152.691406 144.457031 152.484375 148.703125 154.960938 151.441406 L 188.480469 188.460938 C 188.949219 188.980469 188.910156 189.785156 188.390625 190.253906 C 187.871094 190.726562 187.066406 190.683594 186.59375 190.164062 L 153.078125 153.148438 C 149.660156 149.371094 149.945312 143.515625 153.714844 140.089844 C 155.546875 138.425781 157.921875 137.574219 160.394531 137.695312 C 162.871094 137.816406 165.148438 138.898438 166.808594 140.738281 L 201.585938 179.25 C 204.527344 182.515625 206.183594 186.679688 206.257812 190.980469 " fill-opacity="1" fill-rule="nonzero"/></g><g fill="rgb(100%, 100%, 100%)" fill-opacity="1"><g transform="translate(79.171874, 262.54674)"><g><path d="M 8.140625 -16.984375 C 10.648438 -16.984375 12.859375 -16.363281 14.765625 -15.125 L 13.15625 -11.78125 C 12.269531 -12.289062 11.320312 -12.707031 10.3125 -13.03125 C 9.3125 -13.363281 8.46875 -13.53125 7.78125 -13.53125 C 6.539062 -13.53125 5.921875 -13.125 5.921875 -12.3125 C 5.921875 -11.78125 6.222656 -11.351562 6.828125 -11.03125 C 7.441406 -10.71875 8.1875 -10.441406 9.0625 -10.203125 C 9.9375 -9.972656 10.804688 -9.691406 11.671875 -9.359375 C 12.546875 -9.035156 13.285156 -8.503906 13.890625 -7.765625 C 14.503906 -7.035156 14.8125 -6.109375 14.8125 -4.984375 C 14.8125 -3.367188 14.175781 -2.109375 12.90625 -1.203125 C 11.644531 -0.304688 10.039062 0.140625 8.09375 0.140625 C 6.695312 0.140625 5.316406 -0.0976562 3.953125 -0.578125 C 2.597656 -1.054688 1.414062 -1.710938 0.40625 -2.546875 L 2.0625 -5.828125 C 2.914062 -5.097656 3.914062 -4.492188 5.0625 -4.015625 C 6.21875 -3.546875 7.242188 -3.3125 8.140625 -3.3125 C 8.828125 -3.3125 9.359375 -3.4375 9.734375 -3.6875 C 10.117188 -3.9375 10.3125 -4.300781 10.3125 -4.78125 C 10.3125 -5.238281 10.09375 -5.625 9.65625 -5.9375 C 9.21875 -6.25 8.671875 -6.476562 8.015625 -6.625 C 7.359375 -6.78125 6.644531 -6.984375 5.875 -7.234375 C 5.113281 -7.492188 4.40625 -7.773438 3.75 -8.078125 C 3.09375 -8.390625 2.539062 -8.875 2.09375 -9.53125 C 1.65625 -10.195312 1.4375 -10.992188 1.4375 -11.921875 C 1.4375 -13.460938 2.046875 -14.691406 3.265625 -15.609375 C 4.492188 -16.523438 6.117188 -16.984375 8.140625 -16.984375 Z M 8.140625 -16.984375 "/></g></g></g><g fill="rgb(100%, 100%, 100%)" fill-opacity="1"><g transform="translate(94.627909, 262.54674)"><g><path d="M 14.515625 -13.375 L 9.453125 -13.375 L 9.453125 0 L 5.1875 0 L 5.1875 -13.375 L 0.171875 -13.375 L 0.171875 -16.828125 L 14.515625 -16.828125 Z M 14.515625 -13.375 "/></g></g></g><g fill="rgb(100%, 100%, 100%)" fill-opacity="1"><g transform="translate(109.291932, 262.54674)"><g><path d="M 11.8125 0 L 9.3125 -4.734375 L 5.953125 -4.734375 L 5.953125 0 L 1.6875 0 L 1.6875 -16.796875 L 9.1875 -16.796875 C 11.414062 -16.796875 13.132812 -16.285156 14.34375 -15.265625 C 15.5625 -14.253906 16.171875 -12.8125 16.171875 -10.9375 C 16.171875 -8.351562 15.15625 -6.554688 13.125 -5.546875 L 16.65625 0 Z M 5.953125 -8.09375 L 9.1875 -8.09375 C 10.113281 -8.09375 10.832031 -8.320312 11.34375 -8.78125 C 11.863281 -9.25 12.125 -9.921875 12.125 -10.796875 C 12.125 -11.660156 11.863281 -12.316406 11.34375 -12.765625 C 10.832031 -13.210938 10.113281 -13.4375 9.1875 -13.4375 L 5.953125 -13.4375 Z M 5.953125 -8.09375 "/></g></g></g><g fill="rgb(100%, 100%, 100%)" fill-opacity="1"><g transform="translate(126.667964, 262.54674)"><g><path d="M 9.640625 -16.9375 C 12.253906 -16.9375 14.425781 -16.125 16.15625 -14.5 C 17.882812 -12.882812 18.75 -10.859375 18.75 -8.421875 C 18.75 -5.972656 17.878906 -3.925781 16.140625 -2.28125 C 14.398438 -0.632812 12.234375 0.1875 9.640625 0.1875 C 7.054688 0.1875 4.898438 -0.628906 3.171875 -2.265625 C 1.441406 -3.910156 0.578125 -5.960938 0.578125 -8.421875 C 0.578125 -10.867188 1.441406 -12.898438 3.171875 -14.515625 C 4.898438 -16.128906 7.054688 -16.9375 9.640625 -16.9375 Z M 9.703125 -13.375 C 8.390625 -13.375 7.265625 -12.894531 6.328125 -11.9375 C 5.398438 -10.988281 4.9375 -9.804688 4.9375 -8.390625 C 4.9375 -6.984375 5.40625 -5.796875 6.34375 -4.828125 C 7.28125 -3.867188 8.394531 -3.390625 9.6875 -3.390625 C 10.988281 -3.390625 12.09375 -3.867188 13 -4.828125 C 13.90625 -5.796875 14.359375 -6.984375 14.359375 -8.390625 C 14.359375 -9.804688 13.90625 -10.988281 13 -11.9375 C 12.09375 -12.894531 10.992188 -13.375 9.703125 -13.375 Z M 9.703125 -13.375 "/></g></g></g><g fill="rgb(100%, 100%, 100%)" fill-opacity="1"><g transform="translate(145.988005, 262.54674)"><g><path d="M 17.1875 0 L 13.421875 0 L 5.6875 -10.34375 L 5.6875 0 L 1.6875 0 L 1.6875 -16.796875 L 5.453125 -16.796875 L 13.203125 -6.4375 L 13.203125 -16.796875 L 17.1875 -16.796875 Z M 17.1875 0 "/></g></g></g><g fill="rgb(100%, 100%, 100%)" fill-opacity="1"><g transform="translate(164.852044, 262.54674)"><g><path d="M 12.84375 -8.546875 L 16.53125 -8.546875 L 16.53125 -1.984375 C 15.625 -1.347656 14.523438 -0.828125 13.234375 -0.421875 C 11.941406 -0.015625 10.710938 0.1875 9.546875 0.1875 C 6.992188 0.1875 4.859375 -0.628906 3.140625 -2.265625 C 1.429688 -3.910156 0.578125 -5.957031 0.578125 -8.40625 C 0.578125 -10.832031 1.457031 -12.859375 3.21875 -14.484375 C 4.976562 -16.117188 7.1875 -16.9375 9.84375 -16.9375 C 11.09375 -16.9375 12.332031 -16.710938 13.5625 -16.265625 C 14.789062 -15.816406 15.835938 -15.210938 16.703125 -14.453125 L 14.296875 -11.546875 C 13.691406 -12.109375 12.988281 -12.550781 12.1875 -12.875 C 11.382812 -13.207031 10.59375 -13.375 9.8125 -13.375 C 8.4375 -13.375 7.28125 -12.894531 6.34375 -11.9375 C 5.40625 -10.988281 4.9375 -9.8125 4.9375 -8.40625 C 4.9375 -6.976562 5.410156 -5.785156 6.359375 -4.828125 C 7.304688 -3.867188 8.472656 -3.390625 9.859375 -3.390625 C 10.753906 -3.390625 11.75 -3.660156 12.84375 -4.203125 Z M 12.84375 -8.546875 "/></g></g></g><g fill="rgb(100%, 100%, 100%)" fill-opacity="1"><g transform="translate(182.684078, 262.54674)"><g/></g></g><g fill="rgb(100%, 100%, 100%)" fill-opacity="1"><g transform="translate(188.252086, 262.54674)"><g><path d="M 20.5625 0 L 16.171875 0 L 13.0625 -11.609375 L 9.890625 0 L 5.46875 0 L -0.03125 -16.796875 L 4.53125 -16.796875 L 7.828125 -4.4375 L 11.046875 -16.796875 L 15.21875 -16.796875 L 18.5 -4.4375 L 21.75 -16.796875 L 26.109375 -16.796875 Z M 20.5625 0 "/></g></g></g><g fill="rgb(100%, 100%, 100%)" fill-opacity="1"><g transform="translate(214.196139, 262.54674)"><g><path d="M 14.828125 -13.4375 L 5.953125 -13.4375 L 5.953125 -10.109375 L 13.96875 -10.109375 L 13.96875 -6.75 L 5.953125 -6.75 L 5.953125 -3.359375 L 15.09375 -3.359375 L 15.09375 0 L 1.6875 0 L 1.6875 -16.796875 L 14.828125 -16.796875 Z M 14.828125 -13.4375 "/></g></g></g><g fill="rgb(100%, 100%, 100%)" fill-opacity="1"><g transform="translate(230.372167, 262.54674)"><g><path d="M 12.84375 -3.09375 L 5.5 -3.09375 L 4.265625 0 L -0.125 0 L 7.125 -16.796875 L 11.515625 -16.796875 L 18.59375 0 L 14.046875 0 Z M 11.59375 -6.34375 L 9.1875 -12.546875 L 6.75 -6.34375 Z M 11.59375 -6.34375 "/></g></g></g><g fill="rgb(100%, 100%, 100%)" fill-opacity="1"><g transform="translate(248.852199, 262.54674)"><g><path d="M 5.953125 -3.578125 L 13.078125 -3.578125 L 13.078125 0 L 1.6875 0 L 1.6875 -16.796875 L 5.953125 -16.796875 Z M 5.953125 -3.578125 "/></g></g></g><g fill="rgb(100%, 100%, 100%)" fill-opacity="1"><g transform="translate(262.292231, 262.54674)"><g><path d="M 14.515625 -13.375 L 9.453125 -13.375 L 9.453125 0 L 5.1875 0 L 5.1875 -13.375 L 0.171875 -13.375 L 0.171875 -16.828125 L 14.515625 -16.828125 Z M 14.515625 -13.375 "/></g></g></g><g fill="rgb(100%, 100%, 100%)" fill-opacity="1"><g transform="translate(276.956254, 262.54674)"><g><path d="M 17.1875 0 L 12.90625 0 L 12.90625 -6.53125 L 5.953125 -6.53125 L 5.953125 0 L 1.6875 0 L 1.6875 -16.796875 L 5.953125 -16.796875 L 5.953125 -9.890625 L 12.90625 -9.890625 L 12.90625 -16.796875 L 17.1875 -16.796875 Z M 17.1875 0 "/></g></g></g><g fill="rgb(100%, 100%, 100%)" fill-opacity="1"><g transform="translate(118.803571, 281.796721)"><g><path d="M 1.234375 0 L 1.234375 -11.203125 L 4.046875 -11.203125 L 7.53125 -4.3125 L 10.984375 -11.203125 L 13.796875 -11.203125 L 13.796875 0 L 11.515625 0 L 11.515625 -7.5625 L 8.34375 -1.140625 L 6.703125 -1.140625 L 3.5 -7.5625 L 3.5 0 Z M 1.234375 0 "/></g></g></g><g fill="rgb(100%, 100%, 100%)" fill-opacity="1"><g transform="translate(137.039956, 281.796721)"><g><path d="M 12.203125 0 L 9.5 0 L 8.625 -2.171875 L 3.4375 -2.171875 L 2.5625 0 L -0.046875 0 L 4.8125 -11.203125 L 7.421875 -11.203125 Z M 6.046875 -8.5625 L 4.265625 -4.203125 L 7.8125 -4.203125 Z M 6.046875 -8.5625 "/></g></g></g><g fill="rgb(100%, 100%, 100%)" fill-opacity="1"><g transform="translate(152.381032, 281.796721)"><g><path d="M 8.96875 -3.96875 L 8.96875 -11.203125 L 11.375 -11.203125 L 11.375 0 L 9.078125 0 L 3.640625 -7.203125 L 3.640625 0 L 1.234375 0 L 1.234375 -11.203125 L 3.53125 -11.203125 Z M 8.96875 -3.96875 "/></g></g></g><g fill="rgb(100%, 100%, 100%)" fill-opacity="1"><g transform="translate(168.185991, 281.796721)"><g><path d="M 12.203125 0 L 9.5 0 L 8.625 -2.171875 L 3.4375 -2.171875 L 2.5625 0 L -0.046875 0 L 4.8125 -11.203125 L 7.421875 -11.203125 Z M 6.046875 -8.5625 L 4.265625 -4.203125 L 7.8125 -4.203125 Z M 6.046875 -8.5625 "/></g></g></g><g fill="rgb(100%, 100%, 100%)" fill-opacity="1"><g transform="translate(183.52707, 281.796721)"><g><path d="M 8.75 -5.640625 L 10.9375 -5.640625 L 10.9375 -1.296875 C 10.34375 -0.859375 9.628906 -0.503906 8.796875 -0.234375 C 7.960938 0.0351562 7.164062 0.171875 6.40625 0.171875 C 5.28125 0.171875 4.265625 -0.078125 3.359375 -0.578125 C 2.453125 -1.085938 1.738281 -1.78125 1.21875 -2.65625 C 0.695312 -3.539062 0.4375 -4.523438 0.4375 -5.609375 C 0.4375 -6.691406 0.703125 -7.671875 1.234375 -8.546875 C 1.765625 -9.429688 2.492188 -10.125 3.421875 -10.625 C 4.359375 -11.125 5.398438 -11.375 6.546875 -11.375 C 7.378906 -11.375 8.191406 -11.222656 8.984375 -10.921875 C 9.773438 -10.628906 10.460938 -10.226562 11.046875 -9.71875 L 9.609375 -7.90625 C 9.191406 -8.300781 8.710938 -8.609375 8.171875 -8.828125 C 7.628906 -9.054688 7.085938 -9.171875 6.546875 -9.171875 C 5.890625 -9.171875 5.289062 -9.007812 4.75 -8.6875 C 4.21875 -8.375 3.796875 -7.945312 3.484375 -7.40625 C 3.179688 -6.875 3.03125 -6.273438 3.03125 -5.609375 C 3.03125 -4.953125 3.1875 -4.347656 3.5 -3.796875 C 3.8125 -3.242188 4.234375 -2.8125 4.765625 -2.5 C 5.304688 -2.1875 5.90625 -2.03125 6.5625 -2.03125 C 6.894531 -2.03125 7.25 -2.085938 7.625 -2.203125 C 8.007812 -2.316406 8.382812 -2.46875 8.75 -2.65625 Z M 8.75 -5.640625 "/></g></g></g><g fill="rgb(100%, 100%, 100%)" fill-opacity="1"><g transform="translate(198.644199, 281.796721)"><g><path d="M 1.234375 0 L 1.234375 -11.203125 L 4.046875 -11.203125 L 7.53125 -4.3125 L 10.984375 -11.203125 L 13.796875 -11.203125 L 13.796875 0 L 11.515625 0 L 11.515625 -7.5625 L 8.34375 -1.140625 L 6.703125 -1.140625 L 3.5 -7.5625 L 3.5 0 Z M 1.234375 0 "/></g></g></g><g fill="rgb(100%, 100%, 100%)" fill-opacity="1"><g transform="translate(216.880587, 281.796721)"><g><path d="M 1.234375 0 L 1.234375 -11.203125 L 9.765625 -11.203125 L 9.765625 -9.109375 L 3.765625 -9.109375 L 3.765625 -6.671875 L 9.15625 -6.671875 L 9.15625 -4.578125 L 3.765625 -4.578125 L 3.765625 -2.09375 L 9.9375 -2.09375 L 9.9375 0 Z M 1.234375 0 "/></g></g></g><g fill="rgb(100%, 100%, 100%)" fill-opacity="1"><g transform="translate(230.766012, 281.796721)"><g><path d="M 8.96875 -3.96875 L 8.96875 -11.203125 L 11.375 -11.203125 L 11.375 0 L 9.078125 0 L 3.640625 -7.203125 L 3.640625 0 L 1.234375 0 L 1.234375 -11.203125 L 3.53125 -11.203125 Z M 8.96875 -3.96875 "/></g></g></g><g fill="rgb(100%, 100%, 100%)" fill-opacity="1"><g transform="translate(246.570977, 281.796721)"><g><path d="M 0.125 -9.0625 L 0.125 -11.203125 L 9.484375 -11.203125 L 9.484375 -9.0625 L 6.0625 -9.0625 L 6.0625 0 L 3.53125 0 L 3.53125 -9.0625 Z M 0.125 -9.0625 "/></g></g></g></svg>