<svg xmlns="http://www.w3.org/2000/svg" xmlns:xlink="http://www.w3.org/1999/xlink" width="500" zoomAndPan="magnify" viewBox="0 0 375 374.999991" height="500" preserveAspectRatio="xMidYMid meet" version="1.0"><defs><g/><clipPath id="id1"><path d="M 48.5 127.457031 L 86 127.457031 L 86 175.457031 L 48.5 175.457031 Z M 48.5 127.457031 " clip-rule="nonzero"/></clipPath><clipPath id="id2"><path d="M 36.757812 183.441406 L 67.507812 183.441406 L 67.507812 210.441406 L 36.757812 210.441406 Z M 36.757812 183.441406 " clip-rule="nonzero"/></clipPath><clipPath id="id3"><path d="M 66.859375 183.21875 L 97.609375 183.21875 L 97.609375 210.21875 L 66.859375 210.21875 Z M 66.859375 183.21875 " clip-rule="nonzero"/></clipPath></defs><path fill="rgb(100%, 100%, 100%)" d="M 125.875 209.105469 L 125.875 141.609375 L 67 107.859375 L 8.125 141.609375 L 8.125 209.105469 L 67 242.855469 L 125.875 209.105469 M 11.316406 207.269531 L 11.316406 143.445312 L 67 111.53125 L 122.683594 143.445312 L 122.683594 207.269531 L 67 239.183594 L 11.316406 207.269531 " fill-opacity="1" fill-rule="nonzero"/><g clip-path="url(#id1)"><path fill="rgb(100%, 100%, 100%)" d="M 67.476562 127.460938 C 62.226562 127.460938 57.773438 128.824219 54.589844 131.3125 C 51.402344 133.800781 49.539062 137.449219 49.539062 141.714844 C 49.539062 145.179688 50.621094 148.121094 52.820312 150.34375 C 55.019531 152.566406 58.253906 154.054688 62.484375 154.972656 L 62.480469 154.972656 L 68.34375 156.277344 C 71.175781 156.910156 73.050781 157.679688 74.128906 158.535156 C 75.207031 159.386719 75.582031 160.230469 75.582031 161.558594 C 75.582031 163.046875 74.875 164.371094 73.515625 165.394531 C 72.160156 166.421875 70.140625 167.105469 67.664062 167.105469 C 62.472656 167.105469 59.128906 164.722656 58.507812 161.679688 C 58.460938 161.4375 58.339844 161.238281 58.148438 161.078125 C 57.953125 160.921875 57.734375 160.84375 57.488281 160.84375 L 49.539062 160.84375 C 49.394531 160.84375 49.253906 160.875 49.121094 160.933594 C 48.988281 160.992188 48.871094 161.074219 48.773438 161.183594 C 48.675781 161.289062 48.601562 161.410156 48.554688 161.550781 C 48.507812 161.6875 48.492188 161.828125 48.503906 161.976562 C 48.847656 166.097656 50.894531 169.546875 54.167969 171.875 C 57.441406 174.203125 61.90625 175.449219 67.164062 175.449219 C 72.820312 175.449219 77.496094 174.113281 80.8125 171.582031 C 84.125 169.054688 86 165.300781 86 160.84375 C 86 157.308594 84.925781 154.3125 82.605469 152.039062 C 80.285156 149.769531 76.832031 148.234375 72.125 147.210938 L 72.121094 147.210938 L 66.914062 146.058594 C 64.179688 145.453125 62.363281 144.726562 61.332031 143.933594 C 60.296875 143.140625 59.957031 142.382812 59.957031 141.171875 C 59.957031 139.617188 60.589844 138.445312 61.835938 137.542969 C 63.085938 136.640625 65 136.0625 67.445312 136.0625 C 69.699219 136.0625 71.480469 136.601562 72.753906 137.492188 C 74.023438 138.382812 74.816406 139.617188 75.113281 141.214844 C 75.160156 141.460938 75.28125 141.664062 75.472656 141.828125 C 75.664062 141.988281 75.886719 142.066406 76.136719 142.066406 L 83.914062 142.066406 C 84.058594 142.066406 84.199219 142.039062 84.332031 141.980469 C 84.464844 141.921875 84.578125 141.839844 84.679688 141.734375 C 84.777344 141.628906 84.851562 141.507812 84.898438 141.371094 C 84.945312 141.234375 84.964844 141.09375 84.953125 140.949219 C 84.671875 136.976562 82.738281 133.546875 79.65625 131.175781 C 76.570312 128.800781 72.363281 127.460938 67.476562 127.460938 Z M 67.476562 129.550781 C 71.984375 129.550781 75.730469 130.785156 78.386719 132.828125 C 80.738281 134.640625 82.191406 137.089844 82.679688 139.980469 L 76.828125 139.980469 C 76.3125 138.289062 75.390625 136.796875 73.945312 135.785156 C 72.25 134.59375 70.03125 133.976562 67.445312 133.976562 C 64.679688 133.976562 62.332031 134.609375 60.617188 135.851562 C 58.902344 137.09375 57.875 138.996094 57.875 141.171875 C 57.875 142.894531 58.613281 144.472656 60.0625 145.589844 C 61.515625 146.703125 63.585938 147.460938 66.46875 148.097656 L 71.675781 149.246094 C 71.675781 149.246094 71.679688 149.25 71.679688 149.25 C 76.167969 150.226562 79.238281 151.660156 81.148438 153.53125 C 83.058594 155.402344 83.914062 157.714844 83.914062 160.84375 C 83.914062 164.734375 82.386719 167.757812 79.546875 169.925781 C 76.707031 172.089844 72.492188 173.363281 67.164062 173.363281 C 62.234375 173.363281 58.203125 172.1875 55.375 170.175781 C 52.863281 168.386719 51.328125 165.9375 50.792969 162.929688 L 56.839844 162.929688 C 58.113281 166.683594 62.238281 169.191406 67.664062 169.191406 C 70.519531 169.191406 72.984375 168.414062 74.773438 167.0625 C 76.5625 165.710938 77.664062 163.738281 77.664062 161.558594 C 77.664062 159.734375 76.917969 158.082031 75.421875 156.898438 C 73.925781 155.714844 71.78125 154.910156 68.800781 154.242188 C 68.800781 154.242188 68.800781 154.238281 68.800781 154.238281 L 62.929688 152.9375 C 62.929688 152.9375 62.929688 152.9375 62.925781 152.933594 C 58.9375 152.066406 56.105469 150.695312 54.300781 148.871094 C 52.492188 147.050781 51.625 144.761719 51.625 141.714844 C 51.625 138.042969 53.140625 135.085938 55.867188 132.957031 C 58.597656 130.824219 62.589844 129.550781 67.476562 129.550781 Z M 67.476562 129.550781 " fill-opacity="1" fill-rule="nonzero"/></g><g clip-path="url(#id2)"><path fill="rgb(100%, 100%, 100%)" d="M 37.371094 183.46875 C 37.277344 183.46875 37.1875 183.492188 37.105469 183.53125 C 37.019531 183.574219 36.949219 183.628906 36.890625 183.703125 C 36.832031 183.777344 36.792969 183.859375 36.773438 183.949219 C 36.753906 184.042969 36.753906 184.132812 36.777344 184.226562 L 42.914062 209.941406 C 42.945312 210.078125 43.019531 210.191406 43.128906 210.277344 C 43.242188 210.367188 43.367188 210.410156 43.511719 210.410156 L 47.191406 210.410156 C 47.332031 210.410156 47.457031 210.367188 47.566406 210.285156 C 47.675781 210.199219 47.75 210.089844 47.785156 209.957031 L 52.101562 193.808594 L 56.417969 209.957031 C 56.457031 210.089844 56.527344 210.199219 56.640625 210.285156 C 56.75 210.367188 56.875 210.410156 57.011719 210.410156 L 60.695312 210.410156 C 60.839844 210.410156 60.964844 210.367188 61.074219 210.277344 C 61.1875 210.191406 61.261719 210.078125 61.292969 209.941406 L 67.429688 184.226562 C 67.453125 184.132812 67.453125 184.042969 67.433594 183.949219 C 67.414062 183.859375 67.375 183.777344 67.316406 183.703125 C 67.257812 183.628906 67.1875 183.574219 67.101562 183.53125 C 67.015625 183.492188 66.925781 183.46875 66.832031 183.46875 L 62.417969 183.46875 C 62.273438 183.46875 62.148438 183.515625 62.035156 183.601562 C 61.925781 183.691406 61.851562 183.800781 61.820312 183.941406 L 58.390625 198.316406 L 54.539062 183.925781 C 54.5 183.789062 54.429688 183.679688 54.320312 183.597656 C 54.207031 183.511719 54.082031 183.46875 53.945312 183.46875 L 50.261719 183.46875 C 50.121094 183.46875 49.996094 183.511719 49.886719 183.597656 C 49.777344 183.679688 49.703125 183.789062 49.667969 183.925781 L 45.816406 198.316406 L 42.386719 183.941406 C 42.351562 183.800781 42.28125 183.691406 42.167969 183.601562 C 42.058594 183.515625 41.929688 183.46875 41.789062 183.46875 Z M 38.148438 184.695312 L 41.304688 184.695312 L 45.136719 200.757812 C 45.171875 200.894531 45.242188 201.007812 45.355469 201.09375 C 45.464844 201.183594 45.59375 201.226562 45.734375 201.226562 L 45.835938 201.226562 C 45.976562 201.226562 46.101562 201.183594 46.210938 201.101562 C 46.320312 201.015625 46.394531 200.90625 46.429688 200.773438 L 50.734375 184.695312 L 53.472656 184.695312 L 57.777344 200.773438 C 57.8125 200.90625 57.886719 201.015625 57.996094 201.101562 C 58.105469 201.183594 58.230469 201.226562 58.371094 201.226562 L 58.472656 201.226562 C 58.613281 201.226562 58.738281 201.183594 58.851562 201.09375 C 58.960938 201.007812 59.035156 200.894531 59.066406 200.757812 L 62.902344 184.695312 L 66.058594 184.695312 L 60.210938 209.1875 L 57.484375 209.1875 L 52.695312 191.273438 C 52.660156 191.136719 52.585938 191.027344 52.476562 190.945312 C 52.367188 190.859375 52.242188 190.816406 52.101562 190.816406 C 51.964844 190.816406 51.839844 190.859375 51.730469 190.945312 C 51.617188 191.027344 51.546875 191.136719 51.507812 191.273438 L 46.722656 209.1875 L 43.996094 209.1875 Z M 38.148438 184.695312 " fill-opacity="1" fill-rule="nonzero"/></g><g clip-path="url(#id3)"><path fill="rgb(100%, 100%, 100%)" d="M 96.996094 210.1875 C 97.089844 210.1875 97.179688 210.167969 97.265625 210.125 C 97.347656 210.085938 97.417969 210.027344 97.476562 209.953125 C 97.535156 209.882812 97.574219 209.796875 97.59375 209.707031 C 97.617188 209.617188 97.613281 209.523438 97.59375 209.433594 L 91.457031 183.71875 C 91.421875 183.578125 91.351562 183.46875 91.238281 183.378906 C 91.128906 183.292969 91 183.246094 90.859375 183.246094 L 87.175781 183.246094 C 87.035156 183.246094 86.910156 183.289062 86.800781 183.375 C 86.691406 183.457031 86.617188 183.566406 86.582031 183.703125 L 82.265625 199.851562 L 77.949219 183.703125 C 77.914062 183.566406 77.839844 183.457031 77.730469 183.375 C 77.621094 183.289062 77.496094 183.246094 77.355469 183.246094 L 73.671875 183.246094 C 73.53125 183.246094 73.402344 183.292969 73.292969 183.378906 C 73.179688 183.46875 73.109375 183.578125 73.074219 183.71875 L 66.9375 209.433594 C 66.917969 209.523438 66.914062 209.617188 66.9375 209.707031 C 66.957031 209.796875 66.996094 209.882812 67.054688 209.953125 C 67.113281 210.027344 67.183594 210.085938 67.265625 210.125 C 67.351562 210.167969 67.441406 210.1875 67.535156 210.1875 L 71.953125 210.1875 C 72.09375 210.1875 72.21875 210.144531 72.332031 210.054688 C 72.441406 209.96875 72.515625 209.855469 72.546875 209.71875 L 75.980469 195.34375 L 79.832031 209.734375 C 79.867188 209.867188 79.941406 209.976562 80.050781 210.0625 C 80.160156 210.144531 80.285156 210.1875 80.425781 210.1875 L 84.105469 210.1875 C 84.246094 210.1875 84.371094 210.144531 84.480469 210.0625 C 84.589844 209.976562 84.664062 209.867188 84.699219 209.734375 L 88.550781 195.34375 L 91.984375 209.71875 C 92.015625 209.855469 92.089844 209.96875 92.199219 210.054688 C 92.3125 210.144531 92.4375 210.1875 92.578125 210.1875 Z M 96.21875 208.964844 L 93.0625 208.964844 L 89.230469 192.902344 C 89.199219 192.765625 89.125 192.652344 89.011719 192.5625 C 88.902344 192.476562 88.777344 192.433594 88.632812 192.433594 L 88.53125 192.433594 C 88.394531 192.433594 88.269531 192.472656 88.160156 192.558594 C 88.046875 192.644531 87.976562 192.753906 87.9375 192.886719 L 83.636719 208.964844 L 80.894531 208.964844 L 76.589844 192.886719 C 76.554688 192.753906 76.484375 192.644531 76.371094 192.558594 C 76.261719 192.472656 76.136719 192.433594 76 192.433594 L 75.898438 192.433594 C 75.753906 192.433594 75.628906 192.476562 75.515625 192.5625 C 75.40625 192.652344 75.332031 192.765625 75.300781 192.902344 L 71.46875 208.964844 L 68.3125 208.964844 L 74.15625 184.472656 L 76.882812 184.472656 L 81.671875 202.386719 C 81.707031 202.519531 81.78125 202.628906 81.890625 202.714844 C 82 202.800781 82.125 202.839844 82.265625 202.839844 C 82.40625 202.839844 82.53125 202.800781 82.640625 202.714844 C 82.75 202.628906 82.824219 202.519531 82.859375 202.386719 L 87.648438 184.472656 L 90.375 184.472656 Z M 96.21875 208.964844 " fill-opacity="1" fill-rule="nonzero"/></g><g fill="rgb(100%, 100%, 100%)" fill-opacity="1"><g transform="translate(179.011282, 166.998944)"><g><path d="M 13.484375 -20.703125 C 13.484375 -20.359375 13.476562 -19.992188 13.46875 -19.609375 C 13.457031 -19.222656 13.453125 -18.84375 13.453125 -18.46875 C 13.453125 -18.289062 13.460938 -18.054688 13.484375 -17.765625 C 13.503906 -17.472656 13.519531 -17.171875 13.53125 -16.859375 C 13.539062 -16.554688 13.554688 -16.25 13.578125 -15.9375 C 13.597656 -15.625 13.609375 -15.363281 13.609375 -15.15625 L 12.984375 -15.15625 C 12.921875 -15.757812 12.757812 -16.363281 12.5 -16.96875 C 12.25 -17.582031 11.90625 -18.132812 11.46875 -18.625 C 11.03125 -19.125 10.523438 -19.53125 9.953125 -19.84375 C 9.390625 -20.15625 8.769531 -20.3125 8.09375 -20.3125 C 7.53125 -20.3125 7.050781 -20.21875 6.65625 -20.03125 C 6.269531 -19.84375 5.953125 -19.601562 5.703125 -19.3125 C 5.453125 -19.019531 5.269531 -18.695312 5.15625 -18.34375 C 5.039062 -18 4.984375 -17.648438 4.984375 -17.296875 C 4.984375 -16.617188 5.164062 -16.035156 5.53125 -15.546875 C 5.894531 -15.054688 6.34375 -14.625 6.875 -14.25 C 7.414062 -13.882812 7.992188 -13.554688 8.609375 -13.265625 C 9.234375 -12.972656 9.816406 -12.707031 10.359375 -12.46875 C 11.035156 -12.132812 11.664062 -11.769531 12.25 -11.375 C 12.84375 -10.976562 13.351562 -10.53125 13.78125 -10.03125 C 14.207031 -9.539062 14.539062 -8.96875 14.78125 -8.3125 C 15.03125 -7.664062 15.15625 -6.910156 15.15625 -6.046875 C 15.15625 -5.097656 14.972656 -4.226562 14.609375 -3.4375 C 14.253906 -2.65625 13.757812 -1.976562 13.125 -1.40625 C 12.5 -0.84375 11.742188 -0.40625 10.859375 -0.09375 C 9.984375 0.21875 9.039062 0.375 8.03125 0.375 C 7 0.375 6.066406 0.210938 5.234375 -0.109375 C 4.410156 -0.429688 3.609375 -0.878906 2.828125 -1.453125 L 2.109375 -0.25 L 1.546875 -0.25 C 1.546875 -0.882812 1.554688 -1.390625 1.578125 -1.765625 C 1.597656 -2.140625 1.609375 -2.53125 1.609375 -2.9375 C 1.609375 -3.375 1.597656 -3.914062 1.578125 -4.5625 C 1.554688 -5.21875 1.546875 -5.878906 1.546875 -6.546875 L 2.171875 -6.546875 C 2.210938 -5.816406 2.375 -5.085938 2.65625 -4.359375 C 2.945312 -3.640625 3.335938 -2.988281 3.828125 -2.40625 C 4.316406 -1.832031 4.898438 -1.367188 5.578125 -1.015625 C 6.265625 -0.671875 7.03125 -0.5 7.875 -0.5 C 8.59375 -0.5 9.210938 -0.601562 9.734375 -0.8125 C 10.253906 -1.03125 10.679688 -1.3125 11.015625 -1.65625 C 11.359375 -2 11.609375 -2.382812 11.765625 -2.8125 C 11.921875 -3.25 12 -3.695312 12 -4.15625 C 12 -4.769531 11.878906 -5.300781 11.640625 -5.75 C 11.398438 -6.195312 11.078125 -6.59375 10.671875 -6.9375 C 10.273438 -7.289062 9.8125 -7.609375 9.28125 -7.890625 C 8.757812 -8.171875 8.207031 -8.445312 7.625 -8.71875 C 6.96875 -9.019531 6.300781 -9.34375 5.625 -9.6875 C 4.957031 -10.03125 4.351562 -10.445312 3.8125 -10.9375 C 3.269531 -11.4375 2.828125 -12.039062 2.484375 -12.75 C 2.148438 -13.46875 1.984375 -14.34375 1.984375 -15.375 C 1.984375 -16.21875 2.148438 -16.988281 2.484375 -17.6875 C 2.828125 -18.394531 3.28125 -19.007812 3.84375 -19.53125 C 4.40625 -20.050781 5.039062 -20.445312 5.75 -20.71875 C 6.457031 -21 7.195312 -21.140625 7.96875 -21.140625 C 8.75 -21.140625 9.5 -21 10.21875 -20.71875 C 10.945312 -20.445312 11.632812 -20.050781 12.28125 -19.53125 L 12.921875 -20.703125 Z M 13.484375 -20.703125 "/></g></g></g><g fill="rgb(100%, 100%, 100%)" fill-opacity="1"><g transform="translate(195.253263, 166.998944)"><g><path d="M 5.359375 -0.5625 C 5.691406 -0.5625 6.007812 -0.585938 6.3125 -0.640625 C 6.613281 -0.691406 6.875 -0.785156 7.09375 -0.921875 C 7.320312 -1.066406 7.503906 -1.269531 7.640625 -1.53125 C 7.773438 -1.789062 7.84375 -2.140625 7.84375 -2.578125 L 7.84375 -19.90625 C 6.8125 -19.945312 6.101562 -19.972656 5.71875 -19.984375 C 5.332031 -19.992188 5.085938 -20 4.984375 -20 C 3.765625 -19.976562 2.84375 -19.570312 2.21875 -18.78125 C 1.601562 -18 1.253906 -17.019531 1.171875 -15.84375 L 0.625 -15.84375 L 0.8125 -20.796875 C 1.28125 -20.816406 1.738281 -20.828125 2.1875 -20.828125 C 2.632812 -20.828125 3.03125 -20.828125 3.375 -20.828125 C 4.207031 -20.828125 4.941406 -20.820312 5.578125 -20.8125 C 6.222656 -20.800781 6.800781 -20.789062 7.3125 -20.78125 C 7.832031 -20.769531 8.296875 -20.757812 8.703125 -20.75 C 9.117188 -20.738281 9.523438 -20.734375 9.921875 -20.734375 C 10.316406 -20.734375 10.722656 -20.738281 11.140625 -20.75 C 11.566406 -20.757812 12.039062 -20.769531 12.5625 -20.78125 C 13.09375 -20.789062 13.679688 -20.800781 14.328125 -20.8125 C 14.984375 -20.820312 15.742188 -20.828125 16.609375 -20.828125 C 16.984375 -20.828125 17.394531 -20.828125 17.84375 -20.828125 C 18.300781 -20.828125 18.769531 -20.816406 19.25 -20.796875 L 19.46875 -15.84375 L 18.90625 -15.84375 C 18.863281 -16.351562 18.757812 -16.859375 18.59375 -17.359375 C 18.4375 -17.859375 18.195312 -18.300781 17.875 -18.6875 C 17.550781 -19.082031 17.15625 -19.40625 16.6875 -19.65625 C 16.226562 -19.90625 15.6875 -20.03125 15.0625 -20.03125 C 15 -20.03125 14.929688 -20.03125 14.859375 -20.03125 C 14.785156 -20.03125 14.648438 -20.023438 14.453125 -20.015625 C 14.265625 -20.003906 13.992188 -19.988281 13.640625 -19.96875 C 13.285156 -19.945312 12.820312 -19.925781 12.25 -19.90625 L 12.25 -2.578125 C 12.25 -2.140625 12.3125 -1.789062 12.4375 -1.53125 C 12.570312 -1.269531 12.753906 -1.066406 12.984375 -0.921875 C 13.210938 -0.785156 13.476562 -0.691406 13.78125 -0.640625 C 14.082031 -0.585938 14.394531 -0.5625 14.71875 -0.5625 L 14.71875 0 C 14.101562 0 13.570312 -0.00390625 13.125 -0.015625 C 12.6875 -0.0234375 12.296875 -0.0390625 11.953125 -0.0625 C 11.609375 -0.0820312 11.28125 -0.0976562 10.96875 -0.109375 C 10.664062 -0.117188 10.347656 -0.125 10.015625 -0.125 C 9.660156 -0.125 9.335938 -0.117188 9.046875 -0.109375 C 8.765625 -0.0976562 8.453125 -0.0820312 8.109375 -0.0625 C 7.765625 -0.0390625 7.375 -0.0234375 6.9375 -0.015625 C 6.507812 -0.00390625 5.984375 0 5.359375 0 Z M 5.359375 -0.5625 "/></g></g></g><g fill="rgb(100%, 100%, 100%)" fill-opacity="1"><g transform="translate(215.338764, 166.998944)"><g><path d="M 1.140625 -20.734375 C 1.765625 -20.734375 2.300781 -20.726562 2.75 -20.71875 C 3.207031 -20.707031 3.617188 -20.703125 3.984375 -20.703125 C 4.347656 -20.703125 4.675781 -20.695312 4.96875 -20.6875 C 5.269531 -20.675781 5.585938 -20.671875 5.921875 -20.671875 C 6.460938 -20.671875 7.140625 -20.695312 7.953125 -20.75 C 8.765625 -20.800781 9.609375 -20.828125 10.484375 -20.828125 C 11.285156 -20.828125 12.140625 -20.765625 13.046875 -20.640625 C 13.960938 -20.515625 14.804688 -20.265625 15.578125 -19.890625 C 16.347656 -19.523438 16.988281 -18.992188 17.5 -18.296875 C 18.007812 -17.609375 18.265625 -16.695312 18.265625 -15.5625 C 18.265625 -14.84375 18.125 -14.179688 17.84375 -13.578125 C 17.5625 -12.972656 17.1875 -12.445312 16.71875 -12 C 16.257812 -11.5625 15.71875 -11.207031 15.09375 -10.9375 C 14.476562 -10.675781 13.816406 -10.503906 13.109375 -10.421875 C 13.460938 -9.960938 13.898438 -9.390625 14.421875 -8.703125 C 14.953125 -8.023438 15.507812 -7.304688 16.09375 -6.546875 C 16.6875 -5.796875 17.289062 -5.03125 17.90625 -4.25 C 18.53125 -3.476562 19.125 -2.773438 19.6875 -2.140625 C 20.15625 -1.597656 20.601562 -1.195312 21.03125 -0.9375 C 21.457031 -0.6875 21.925781 -0.5625 22.4375 -0.5625 L 22.4375 0 C 21.988281 0 21.617188 -0.00390625 21.328125 -0.015625 C 21.035156 -0.0234375 20.78125 -0.0351562 20.5625 -0.046875 C 20.351562 -0.0546875 20.160156 -0.0664062 19.984375 -0.078125 C 19.804688 -0.0859375 19.59375 -0.09375 19.34375 -0.09375 C 18.820312 -0.09375 18.289062 -0.078125 17.75 -0.046875 C 17.21875 -0.015625 16.65625 0 16.0625 0 C 15.414062 -0.800781 14.835938 -1.550781 14.328125 -2.25 C 13.828125 -2.957031 13.332031 -3.644531 12.84375 -4.3125 C 12.363281 -4.988281 11.875 -5.671875 11.375 -6.359375 C 10.882812 -7.054688 10.328125 -7.800781 9.703125 -8.59375 C 9.390625 -8.976562 9.140625 -9.234375 8.953125 -9.359375 C 8.773438 -9.484375 8.507812 -9.546875 8.15625 -9.546875 L 8.03125 -9.546875 L 8.03125 -2.578125 C 8.03125 -2.140625 8.097656 -1.789062 8.234375 -1.53125 C 8.367188 -1.269531 8.546875 -1.066406 8.765625 -0.921875 C 8.992188 -0.785156 9.257812 -0.691406 9.5625 -0.640625 C 9.863281 -0.585938 10.179688 -0.5625 10.515625 -0.5625 L 10.515625 0 C 9.890625 0 9.363281 -0.00390625 8.9375 -0.015625 C 8.519531 -0.0234375 8.148438 -0.0390625 7.828125 -0.0625 C 7.503906 -0.0820312 7.195312 -0.0976562 6.90625 -0.109375 C 6.625 -0.117188 6.316406 -0.125 5.984375 -0.125 C 5.628906 -0.125 5.296875 -0.117188 4.984375 -0.109375 C 4.679688 -0.0976562 4.347656 -0.0820312 3.984375 -0.0625 C 3.617188 -0.0390625 3.207031 -0.0234375 2.75 -0.015625 C 2.300781 -0.00390625 1.765625 0 1.140625 0 L 1.140625 -0.5625 C 1.472656 -0.5625 1.789062 -0.585938 2.09375 -0.640625 C 2.394531 -0.691406 2.65625 -0.785156 2.875 -0.921875 C 3.101562 -1.066406 3.285156 -1.269531 3.421875 -1.53125 C 3.554688 -1.789062 3.625 -2.140625 3.625 -2.578125 L 3.625 -18.171875 C 3.625 -18.597656 3.554688 -18.941406 3.421875 -19.203125 C 3.285156 -19.460938 3.101562 -19.664062 2.875 -19.8125 C 2.65625 -19.957031 2.394531 -20.054688 2.09375 -20.109375 C 1.789062 -20.160156 1.472656 -20.1875 1.140625 -20.1875 Z M 8.03125 -10.421875 L 9.421875 -10.421875 C 10.210938 -10.421875 10.867188 -10.539062 11.390625 -10.78125 C 11.921875 -11.03125 12.335938 -11.382812 12.640625 -11.84375 C 12.953125 -12.300781 13.175781 -12.847656 13.3125 -13.484375 C 13.445312 -14.128906 13.515625 -14.84375 13.515625 -15.625 C 13.515625 -16.1875 13.441406 -16.722656 13.296875 -17.234375 C 13.148438 -17.753906 12.925781 -18.210938 12.625 -18.609375 C 12.332031 -19.015625 11.953125 -19.34375 11.484375 -19.59375 C 11.015625 -19.84375 10.453125 -19.96875 9.796875 -19.96875 C 9.628906 -19.96875 9.441406 -19.960938 9.234375 -19.953125 C 9.023438 -19.941406 8.832031 -19.894531 8.65625 -19.8125 C 8.488281 -19.726562 8.34375 -19.609375 8.21875 -19.453125 C 8.09375 -19.296875 8.03125 -19.082031 8.03125 -18.8125 Z M 8.03125 -10.421875 "/></g></g></g><g fill="rgb(100%, 100%, 100%)" fill-opacity="1"><g transform="translate(237.470011, 166.998944)"><g><path d="M 12.609375 -21.109375 C 14.097656 -21.109375 15.515625 -20.851562 16.859375 -20.34375 C 18.203125 -19.84375 19.382812 -19.117188 20.40625 -18.171875 C 21.4375 -17.234375 22.253906 -16.097656 22.859375 -14.765625 C 23.472656 -13.429688 23.78125 -11.953125 23.78125 -10.328125 C 23.78125 -8.648438 23.472656 -7.148438 22.859375 -5.828125 C 22.253906 -4.503906 21.4375 -3.375 20.40625 -2.4375 C 19.382812 -1.507812 18.203125 -0.796875 16.859375 -0.296875 C 15.515625 0.191406 14.097656 0.4375 12.609375 0.4375 C 11.023438 0.4375 9.550781 0.1875 8.1875 -0.3125 C 6.820312 -0.820312 5.632812 -1.546875 4.625 -2.484375 C 3.625 -3.429688 2.832031 -4.570312 2.25 -5.90625 C 1.675781 -7.238281 1.390625 -8.734375 1.390625 -10.390625 C 1.390625 -11.953125 1.671875 -13.390625 2.234375 -14.703125 C 2.804688 -16.015625 3.59375 -17.144531 4.59375 -18.09375 C 5.601562 -19.050781 6.796875 -19.789062 8.171875 -20.3125 C 9.546875 -20.84375 11.023438 -21.109375 12.609375 -21.109375 Z M 12.609375 -20.28125 C 11.515625 -20.28125 10.566406 -20 9.765625 -19.4375 C 8.960938 -18.875 8.296875 -18.132812 7.765625 -17.21875 C 7.234375 -16.300781 6.835938 -15.242188 6.578125 -14.046875 C 6.328125 -12.847656 6.203125 -11.609375 6.203125 -10.328125 C 6.203125 -8.941406 6.328125 -7.648438 6.578125 -6.453125 C 6.835938 -5.253906 7.234375 -4.207031 7.765625 -3.3125 C 8.296875 -2.425781 8.960938 -1.722656 9.765625 -1.203125 C 10.566406 -0.691406 11.515625 -0.4375 12.609375 -0.4375 C 13.671875 -0.4375 14.597656 -0.691406 15.390625 -1.203125 C 16.179688 -1.722656 16.84375 -2.425781 17.375 -3.3125 C 17.90625 -4.207031 18.300781 -5.253906 18.5625 -6.453125 C 18.832031 -7.648438 18.96875 -8.941406 18.96875 -10.328125 C 18.96875 -11.648438 18.832031 -12.914062 18.5625 -14.125 C 18.300781 -15.332031 17.90625 -16.390625 17.375 -17.296875 C 16.84375 -18.203125 16.179688 -18.925781 15.390625 -19.46875 C 14.597656 -20.007812 13.671875 -20.28125 12.609375 -20.28125 Z M 12.609375 -20.28125 "/></g></g></g><g fill="rgb(100%, 100%, 100%)" fill-opacity="1"><g transform="translate(262.638874, 166.998944)"><g><path d="M 1.453125 -0.5625 C 1.785156 -0.5625 2.101562 -0.585938 2.40625 -0.640625 C 2.707031 -0.691406 2.96875 -0.785156 3.1875 -0.921875 C 3.414062 -1.066406 3.597656 -1.269531 3.734375 -1.53125 C 3.867188 -1.789062 3.9375 -2.140625 3.9375 -2.578125 L 3.9375 -18.109375 L 3.25 -18.96875 C 2.96875 -19.34375 2.65625 -19.640625 2.3125 -19.859375 C 1.96875 -20.078125 1.523438 -20.1875 0.984375 -20.1875 L 0.984375 -20.734375 C 1.359375 -20.734375 1.679688 -20.726562 1.953125 -20.71875 C 2.222656 -20.707031 2.460938 -20.695312 2.671875 -20.6875 C 2.890625 -20.675781 3.085938 -20.664062 3.265625 -20.65625 C 3.441406 -20.644531 3.644531 -20.640625 3.875 -20.640625 C 4.289062 -20.640625 4.804688 -20.65625 5.421875 -20.6875 C 6.046875 -20.71875 6.601562 -20.734375 7.09375 -20.734375 L 19.0625 -6.078125 L 19.0625 -18.171875 C 19.0625 -18.597656 18.992188 -18.941406 18.859375 -19.203125 C 18.722656 -19.460938 18.539062 -19.664062 18.3125 -19.8125 C 18.09375 -19.957031 17.832031 -20.054688 17.53125 -20.109375 C 17.226562 -20.160156 16.910156 -20.1875 16.578125 -20.1875 L 16.578125 -20.734375 C 16.992188 -20.734375 17.332031 -20.726562 17.59375 -20.71875 C 17.851562 -20.707031 18.070312 -20.695312 18.25 -20.6875 C 18.4375 -20.675781 18.613281 -20.664062 18.78125 -20.65625 C 18.945312 -20.644531 19.144531 -20.640625 19.375 -20.640625 C 19.601562 -20.640625 19.816406 -20.644531 20.015625 -20.65625 C 20.210938 -20.664062 20.414062 -20.675781 20.625 -20.6875 C 20.84375 -20.695312 21.097656 -20.707031 21.390625 -20.71875 C 21.679688 -20.726562 22.03125 -20.734375 22.4375 -20.734375 L 22.4375 -20.1875 C 22.113281 -20.1875 21.800781 -20.160156 21.5 -20.109375 C 21.195312 -20.054688 20.929688 -19.957031 20.703125 -19.8125 C 20.472656 -19.664062 20.289062 -19.460938 20.15625 -19.203125 C 20.03125 -18.941406 19.96875 -18.597656 19.96875 -18.171875 L 19.96875 0.375 L 19 0.375 L 4.84375 -17.140625 L 4.84375 -2.578125 C 4.84375 -2.140625 4.90625 -1.789062 5.03125 -1.53125 C 5.164062 -1.269531 5.347656 -1.066406 5.578125 -0.921875 C 5.804688 -0.785156 6.066406 -0.691406 6.359375 -0.640625 C 6.660156 -0.585938 6.976562 -0.5625 7.3125 -0.5625 L 7.3125 0 C 6.90625 0 6.554688 -0.00390625 6.265625 -0.015625 C 5.972656 -0.0234375 5.710938 -0.0351562 5.484375 -0.046875 C 5.253906 -0.0546875 5.039062 -0.0664062 4.84375 -0.078125 C 4.65625 -0.0859375 4.445312 -0.09375 4.21875 -0.09375 C 3.988281 -0.09375 3.789062 -0.0859375 3.625 -0.078125 C 3.457031 -0.0664062 3.28125 -0.0546875 3.09375 -0.046875 C 2.914062 -0.0351562 2.703125 -0.0234375 2.453125 -0.015625 C 2.203125 -0.00390625 1.867188 0 1.453125 0 Z M 1.453125 -0.5625 "/></g></g></g><g fill="rgb(100%, 100%, 100%)" fill-opacity="1"><g transform="translate(286.071955, 166.998944)"><g><path d="M 20.484375 -5.328125 C 20.484375 -4.773438 20.488281 -4.203125 20.5 -3.609375 C 20.507812 -3.023438 20.535156 -2.523438 20.578125 -2.109375 C 19.835938 -2.066406 19.140625 -1.910156 18.484375 -1.640625 C 17.835938 -1.367188 17.171875 -1.082031 16.484375 -0.78125 C 15.804688 -0.488281 15.066406 -0.21875 14.265625 0.03125 C 13.472656 0.28125 12.570312 0.40625 11.5625 0.40625 C 10.050781 0.40625 8.675781 0.15625 7.4375 -0.34375 C 6.195312 -0.851562 5.128906 -1.570312 4.234375 -2.5 C 3.335938 -3.4375 2.640625 -4.550781 2.140625 -5.84375 C 1.640625 -7.132812 1.390625 -8.566406 1.390625 -10.140625 C 1.390625 -11.691406 1.675781 -13.132812 2.25 -14.46875 C 2.832031 -15.8125 3.625 -16.972656 4.625 -17.953125 C 5.632812 -18.941406 6.820312 -19.710938 8.1875 -20.265625 C 9.550781 -20.828125 11.007812 -21.109375 12.5625 -21.109375 C 13.65625 -21.109375 14.6875 -20.941406 15.65625 -20.609375 C 16.625 -20.285156 17.5625 -19.820312 18.46875 -19.21875 L 19.0625 -20.3125 L 19.625 -20.3125 C 19.601562 -19.9375 19.582031 -19.617188 19.5625 -19.359375 C 19.539062 -19.097656 19.523438 -18.859375 19.515625 -18.640625 C 19.503906 -18.429688 19.5 -18.234375 19.5 -18.046875 C 19.5 -17.859375 19.5 -17.648438 19.5 -17.421875 C 19.5 -17.148438 19.5 -16.910156 19.5 -16.703125 C 19.5 -16.503906 19.503906 -16.285156 19.515625 -16.046875 C 19.523438 -15.804688 19.53125 -15.523438 19.53125 -15.203125 C 19.53125 -14.878906 19.53125 -14.472656 19.53125 -13.984375 L 18.96875 -13.984375 C 18.925781 -14.929688 18.753906 -15.789062 18.453125 -16.5625 C 18.160156 -17.34375 17.75 -18.003906 17.21875 -18.546875 C 16.695312 -19.097656 16.066406 -19.523438 15.328125 -19.828125 C 14.597656 -20.128906 13.773438 -20.28125 12.859375 -20.28125 C 12.015625 -20.28125 11.191406 -20.070312 10.390625 -19.65625 C 9.597656 -19.238281 8.890625 -18.601562 8.265625 -17.75 C 7.648438 -16.90625 7.148438 -15.84375 6.765625 -14.5625 C 6.390625 -13.28125 6.203125 -11.765625 6.203125 -10.015625 C 6.203125 -9.367188 6.234375 -8.679688 6.296875 -7.953125 C 6.359375 -7.234375 6.460938 -6.519531 6.609375 -5.8125 C 6.765625 -5.101562 6.976562 -4.425781 7.25 -3.78125 C 7.519531 -3.144531 7.863281 -2.578125 8.28125 -2.078125 C 8.707031 -1.578125 9.210938 -1.175781 9.796875 -0.875 C 10.390625 -0.582031 11.09375 -0.4375 11.90625 -0.4375 C 12.476562 -0.4375 13.03125 -0.515625 13.5625 -0.671875 C 14.09375 -0.828125 14.554688 -1.082031 14.953125 -1.4375 C 15.359375 -1.800781 15.675781 -2.273438 15.90625 -2.859375 C 16.132812 -3.453125 16.25 -4.179688 16.25 -5.046875 C 16.25 -5.898438 16.082031 -6.539062 15.75 -6.96875 C 15.414062 -7.40625 14.691406 -7.625 13.578125 -7.625 L 13.578125 -8.1875 C 14.203125 -8.1875 14.734375 -8.179688 15.171875 -8.171875 C 15.617188 -8.160156 16.015625 -8.144531 16.359375 -8.125 C 16.710938 -8.101562 17.046875 -8.085938 17.359375 -8.078125 C 17.671875 -8.066406 18.003906 -8.0625 18.359375 -8.0625 C 18.679688 -8.0625 18.984375 -8.066406 19.265625 -8.078125 C 19.546875 -8.085938 19.847656 -8.101562 20.171875 -8.125 C 20.503906 -8.144531 20.882812 -8.160156 21.3125 -8.171875 C 21.738281 -8.179688 22.257812 -8.1875 22.875 -8.1875 L 22.875 -7.625 C 21.988281 -7.625 21.367188 -7.460938 21.015625 -7.140625 C 20.660156 -6.828125 20.484375 -6.222656 20.484375 -5.328125 Z M 20.484375 -5.328125 "/></g></g></g><g fill="rgb(100%, 100%, 100%)" fill-opacity="1"><g transform="translate(153.902352, 198.602008)"><g><path d="M 0.109375 -14.046875 C 0.597656 -14.046875 0.984375 -14.039062 1.265625 -14.03125 C 1.554688 -14.03125 1.796875 -14.019531 1.984375 -14 C 2.179688 -13.988281 2.359375 -13.976562 2.515625 -13.96875 C 2.671875 -13.96875 2.863281 -13.96875 3.09375 -13.96875 C 3.300781 -13.96875 3.476562 -13.96875 3.625 -13.96875 C 3.769531 -13.976562 3.9375 -13.988281 4.125 -14 C 4.3125 -14.019531 4.546875 -14.03125 4.828125 -14.03125 C 5.109375 -14.039062 5.488281 -14.046875 5.96875 -14.046875 L 5.96875 -13.84375 C 5.78125 -13.84375 5.582031 -13.832031 5.375 -13.8125 C 5.175781 -13.789062 4.988281 -13.742188 4.8125 -13.671875 C 4.644531 -13.597656 4.503906 -13.484375 4.390625 -13.328125 C 4.273438 -13.179688 4.21875 -12.972656 4.21875 -12.703125 C 4.21875 -12.566406 4.234375 -12.425781 4.265625 -12.28125 C 4.296875 -12.144531 4.332031 -12.015625 4.375 -11.890625 L 7.25 -2.9375 L 9.953125 -11.171875 L 9.5625 -12.4375 C 9.382812 -12.945312 9.148438 -13.304688 8.859375 -13.515625 C 8.578125 -13.734375 8.191406 -13.84375 7.703125 -13.84375 L 7.703125 -14.046875 C 8.210938 -14.046875 8.617188 -14.039062 8.921875 -14.03125 C 9.234375 -14.03125 9.488281 -14.019531 9.6875 -14 C 9.894531 -13.988281 10.070312 -13.976562 10.21875 -13.96875 C 10.363281 -13.96875 10.535156 -13.96875 10.734375 -13.96875 C 10.910156 -13.96875 11.070312 -13.96875 11.21875 -13.96875 C 11.363281 -13.976562 11.539062 -13.988281 11.75 -14 C 11.96875 -14.019531 12.238281 -14.03125 12.5625 -14.03125 C 12.882812 -14.039062 13.316406 -14.046875 13.859375 -14.046875 L 13.859375 -13.84375 C 13.609375 -13.84375 13.359375 -13.820312 13.109375 -13.78125 C 12.867188 -13.738281 12.65625 -13.65625 12.46875 -13.53125 C 12.28125 -13.414062 12.128906 -13.25 12.015625 -13.03125 C 11.898438 -12.8125 11.84375 -12.535156 11.84375 -12.203125 C 11.84375 -11.890625 11.875 -11.585938 11.9375 -11.296875 C 12.007812 -11.003906 12.097656 -10.71875 12.203125 -10.4375 L 14.640625 -2.921875 L 17.4375 -11.515625 C 17.5 -11.742188 17.546875 -11.9375 17.578125 -12.09375 C 17.609375 -12.257812 17.625 -12.40625 17.625 -12.53125 C 17.625 -13.0625 17.445312 -13.410156 17.09375 -13.578125 C 16.738281 -13.753906 16.296875 -13.84375 15.765625 -13.84375 L 15.765625 -14.046875 C 16.109375 -14.046875 16.382812 -14.039062 16.59375 -14.03125 C 16.800781 -14.03125 16.976562 -14.023438 17.125 -14.015625 C 17.269531 -14.003906 17.398438 -13.992188 17.515625 -13.984375 C 17.640625 -13.984375 17.789062 -13.984375 17.96875 -13.984375 C 18.144531 -13.984375 18.289062 -13.984375 18.40625 -13.984375 C 18.519531 -13.992188 18.644531 -14.003906 18.78125 -14.015625 C 18.914062 -14.023438 19.082031 -14.03125 19.28125 -14.03125 C 19.476562 -14.039062 19.738281 -14.046875 20.0625 -14.046875 L 20.0625 -13.84375 C 19.738281 -13.84375 19.46875 -13.800781 19.25 -13.71875 C 19.03125 -13.644531 18.84375 -13.523438 18.6875 -13.359375 C 18.53125 -13.203125 18.398438 -13.003906 18.296875 -12.765625 C 18.191406 -12.523438 18.09375 -12.253906 18 -11.953125 L 14.03125 0.25 L 13.65625 0.25 L 10.15625 -10.515625 L 6.609375 0.25 L 6.1875 0.25 L 2.078125 -12.375 C 1.878906 -12.945312 1.632812 -13.328125 1.34375 -13.515625 C 1.050781 -13.703125 0.640625 -13.8125 0.109375 -13.84375 Z M 0.109375 -14.046875 "/></g></g></g><g fill="rgb(100%, 100%, 100%)" fill-opacity="1"><g transform="translate(174.051105, 198.602008)"><g><path d="M 8.984375 -1.421875 C 8.828125 -1.242188 8.640625 -1.054688 8.421875 -0.859375 C 8.210938 -0.660156 7.957031 -0.476562 7.65625 -0.3125 C 7.363281 -0.144531 7.035156 -0.0078125 6.671875 0.09375 C 6.304688 0.195312 5.898438 0.25 5.453125 0.25 C 4.867188 0.25 4.300781 0.148438 3.75 -0.046875 C 3.195312 -0.253906 2.707031 -0.550781 2.28125 -0.9375 C 1.851562 -1.332031 1.503906 -1.820312 1.234375 -2.40625 C 0.972656 -2.988281 0.84375 -3.648438 0.84375 -4.390625 C 0.84375 -5.054688 0.957031 -5.679688 1.1875 -6.265625 C 1.425781 -6.859375 1.757812 -7.378906 2.1875 -7.828125 C 2.613281 -8.273438 3.113281 -8.628906 3.6875 -8.890625 C 4.269531 -9.148438 4.894531 -9.28125 5.5625 -9.28125 C 6.050781 -9.28125 6.523438 -9.195312 6.984375 -9.03125 C 7.441406 -8.875 7.835938 -8.648438 8.171875 -8.359375 C 8.515625 -8.066406 8.796875 -7.71875 9.015625 -7.3125 C 9.242188 -6.90625 9.375 -6.460938 9.40625 -5.984375 C 9.40625 -5.898438 9.398438 -5.820312 9.390625 -5.75 C 9.390625 -5.6875 9.351562 -5.65625 9.28125 -5.65625 L 2.921875 -5.65625 C 2.890625 -5.457031 2.863281 -5.25 2.84375 -5.03125 C 2.832031 -4.8125 2.828125 -4.601562 2.828125 -4.40625 C 2.828125 -3.0625 3.117188 -2.03125 3.703125 -1.3125 C 4.296875 -0.601562 5.0625 -0.25 6 -0.25 C 6.382812 -0.25 6.722656 -0.296875 7.015625 -0.390625 C 7.304688 -0.484375 7.566406 -0.59375 7.796875 -0.71875 C 8.023438 -0.851562 8.222656 -1 8.390625 -1.15625 C 8.566406 -1.3125 8.71875 -1.453125 8.84375 -1.578125 Z M 7.265625 -5.96875 C 7.492188 -5.96875 7.609375 -6.078125 7.609375 -6.296875 C 7.609375 -6.566406 7.570312 -6.859375 7.5 -7.171875 C 7.4375 -7.484375 7.328125 -7.769531 7.171875 -8.03125 C 7.023438 -8.300781 6.816406 -8.523438 6.546875 -8.703125 C 6.285156 -8.878906 5.941406 -8.96875 5.515625 -8.96875 C 5.046875 -8.96875 4.65625 -8.863281 4.34375 -8.65625 C 4.039062 -8.457031 3.789062 -8.203125 3.59375 -7.890625 C 3.40625 -7.585938 3.265625 -7.265625 3.171875 -6.921875 C 3.085938 -6.578125 3.019531 -6.257812 2.96875 -5.96875 Z M 7.265625 -5.96875 "/></g></g></g><g fill="rgb(100%, 100%, 100%)" fill-opacity="1"><g transform="translate(184.230418, 198.602008)"><g><path d="M 4.578125 -9.015625 C 4.441406 -9.015625 4.253906 -9 4.015625 -8.96875 C 3.773438 -8.9375 3.539062 -8.890625 3.3125 -8.828125 C 3.082031 -8.765625 2.878906 -8.679688 2.703125 -8.578125 C 2.535156 -8.472656 2.453125 -8.351562 2.453125 -8.21875 C 2.453125 -8.1875 2.476562 -8.101562 2.53125 -7.96875 C 2.582031 -7.832031 2.609375 -7.660156 2.609375 -7.453125 C 2.609375 -7.285156 2.539062 -7.117188 2.40625 -6.953125 C 2.28125 -6.796875 2.101562 -6.71875 1.875 -6.71875 C 1.695312 -6.71875 1.523438 -6.785156 1.359375 -6.921875 C 1.191406 -7.066406 1.109375 -7.300781 1.109375 -7.625 C 1.109375 -7.945312 1.238281 -8.210938 1.5 -8.421875 C 1.769531 -8.640625 2.09375 -8.816406 2.46875 -8.953125 C 2.851562 -9.085938 3.25 -9.179688 3.65625 -9.234375 C 4.070312 -9.296875 4.425781 -9.328125 4.71875 -9.328125 C 5.195312 -9.328125 5.648438 -9.28125 6.078125 -9.1875 C 6.503906 -9.09375 6.875 -8.929688 7.1875 -8.703125 C 7.507812 -8.484375 7.757812 -8.1875 7.9375 -7.8125 C 8.125 -7.4375 8.21875 -6.960938 8.21875 -6.390625 L 8.21875 -1.78125 C 8.21875 -1.664062 8.222656 -1.539062 8.234375 -1.40625 C 8.242188 -1.269531 8.269531 -1.132812 8.3125 -1 C 8.351562 -0.875 8.421875 -0.765625 8.515625 -0.671875 C 8.609375 -0.585938 8.738281 -0.546875 8.90625 -0.546875 C 9.070312 -0.546875 9.207031 -0.601562 9.3125 -0.71875 C 9.425781 -0.84375 9.519531 -0.960938 9.59375 -1.078125 L 9.78125 -0.984375 C 9.757812 -0.910156 9.703125 -0.804688 9.609375 -0.671875 C 9.515625 -0.546875 9.394531 -0.414062 9.25 -0.28125 C 9.101562 -0.144531 8.925781 -0.0234375 8.71875 0.078125 C 8.519531 0.179688 8.296875 0.234375 8.046875 0.234375 C 7.640625 0.234375 7.296875 0.101562 7.015625 -0.15625 C 6.734375 -0.425781 6.554688 -0.753906 6.484375 -1.140625 C 5.992188 -0.734375 5.484375 -0.398438 4.953125 -0.140625 C 4.421875 0.109375 3.828125 0.234375 3.171875 0.234375 C 2.859375 0.234375 2.566406 0.191406 2.296875 0.109375 C 2.023438 0.0234375 1.785156 -0.101562 1.578125 -0.28125 C 1.367188 -0.457031 1.195312 -0.675781 1.0625 -0.9375 C 0.9375 -1.207031 0.875 -1.523438 0.875 -1.890625 C 0.875 -2.347656 1 -2.726562 1.25 -3.03125 C 1.507812 -3.332031 1.769531 -3.566406 2.03125 -3.734375 C 2.457031 -4.015625 2.9375 -4.265625 3.46875 -4.484375 C 4 -4.703125 4.53125 -4.929688 5.0625 -5.171875 C 5.21875 -5.234375 5.378906 -5.300781 5.546875 -5.375 C 5.710938 -5.457031 5.859375 -5.535156 5.984375 -5.609375 C 6.117188 -5.679688 6.226562 -5.75 6.3125 -5.8125 C 6.40625 -5.875 6.453125 -5.9375 6.453125 -6 L 6.453125 -6.890625 C 6.453125 -7.023438 6.441406 -7.210938 6.421875 -7.453125 C 6.398438 -7.691406 6.332031 -7.925781 6.21875 -8.15625 C 6.101562 -8.382812 5.914062 -8.582031 5.65625 -8.75 C 5.394531 -8.925781 5.035156 -9.015625 4.578125 -9.015625 Z M 6.453125 -5.453125 C 6.046875 -5.242188 5.601562 -5.035156 5.125 -4.828125 C 4.644531 -4.628906 4.234375 -4.410156 3.890625 -4.171875 C 3.484375 -3.898438 3.179688 -3.585938 2.984375 -3.234375 C 2.796875 -2.878906 2.703125 -2.519531 2.703125 -2.15625 C 2.703125 -1.945312 2.726562 -1.742188 2.78125 -1.546875 C 2.84375 -1.359375 2.929688 -1.179688 3.046875 -1.015625 C 3.160156 -0.859375 3.300781 -0.726562 3.46875 -0.625 C 3.632812 -0.53125 3.835938 -0.484375 4.078125 -0.484375 C 4.566406 -0.484375 5.019531 -0.59375 5.4375 -0.8125 C 5.851562 -1.03125 6.191406 -1.269531 6.453125 -1.53125 Z M 6.453125 -5.453125 "/></g></g></g><g fill="rgb(100%, 100%, 100%)" fill-opacity="1"><g transform="translate(194.220846, 198.602008)"><g><path d="M 2.03125 -12.1875 C 2.03125 -12.445312 1.992188 -12.65625 1.921875 -12.8125 C 1.859375 -12.976562 1.765625 -13.101562 1.640625 -13.1875 C 1.515625 -13.269531 1.363281 -13.320312 1.1875 -13.34375 C 1.019531 -13.363281 0.832031 -13.375 0.625 -13.375 L 0.625 -13.59375 C 1.144531 -13.632812 1.675781 -13.71875 2.21875 -13.84375 C 2.757812 -13.96875 3.285156 -14.128906 3.796875 -14.328125 L 3.796875 -1.40625 C 3.796875 -1.125 3.832031 -0.90625 3.90625 -0.75 C 3.976562 -0.601562 4.078125 -0.484375 4.203125 -0.390625 C 4.328125 -0.304688 4.472656 -0.253906 4.640625 -0.234375 C 4.804688 -0.210938 4.992188 -0.203125 5.203125 -0.203125 L 5.203125 0 C 4.867188 0 4.597656 0 4.390625 0 C 4.179688 -0.0078125 4 -0.0195312 3.84375 -0.03125 C 3.6875 -0.0390625 3.535156 -0.046875 3.390625 -0.046875 C 3.253906 -0.0546875 3.097656 -0.0625 2.921875 -0.0625 C 2.722656 -0.0625 2.554688 -0.0546875 2.421875 -0.046875 C 2.285156 -0.046875 2.140625 -0.0390625 1.984375 -0.03125 C 1.835938 -0.0195312 1.660156 -0.0078125 1.453125 0 C 1.242188 0 0.96875 0 0.625 0 L 0.625 -0.203125 C 0.832031 -0.203125 1.019531 -0.210938 1.1875 -0.234375 C 1.363281 -0.253906 1.515625 -0.304688 1.640625 -0.390625 C 1.765625 -0.484375 1.859375 -0.601562 1.921875 -0.75 C 1.992188 -0.90625 2.03125 -1.125 2.03125 -1.40625 Z M 2.03125 -12.1875 "/></g></g></g><g fill="rgb(100%, 100%, 100%)" fill-opacity="1"><g transform="translate(200.055593, 198.602008)"><g><path d="M 4.4375 0.25 C 3.945312 0.25 3.539062 0.175781 3.21875 0.03125 C 2.894531 -0.101562 2.632812 -0.289062 2.4375 -0.53125 C 2.25 -0.78125 2.117188 -1.066406 2.046875 -1.390625 C 1.972656 -1.710938 1.9375 -2.054688 1.9375 -2.421875 L 1.9375 -8.671875 L 0.734375 -8.671875 L 0.734375 -8.890625 C 1.316406 -9.097656 1.859375 -9.445312 2.359375 -9.9375 C 2.859375 -10.425781 3.226562 -10.960938 3.46875 -11.546875 L 3.703125 -11.546875 L 3.703125 -8.984375 L 5.875 -8.984375 L 5.875 -8.671875 L 3.703125 -8.671875 L 3.703125 -2.9375 C 3.703125 -2.613281 3.710938 -2.296875 3.734375 -1.984375 C 3.753906 -1.671875 3.804688 -1.382812 3.890625 -1.125 C 3.984375 -0.875 4.117188 -0.671875 4.296875 -0.515625 C 4.484375 -0.367188 4.738281 -0.296875 5.0625 -0.296875 C 5.457031 -0.296875 5.769531 -0.378906 6 -0.546875 C 6.226562 -0.722656 6.421875 -0.929688 6.578125 -1.171875 L 6.734375 -1.046875 C 6.546875 -0.722656 6.265625 -0.425781 5.890625 -0.15625 C 5.515625 0.113281 5.03125 0.25 4.4375 0.25 Z M 4.4375 0.25 "/></g></g></g><g fill="rgb(100%, 100%, 100%)" fill-opacity="1"><g transform="translate(207.107659, 198.602008)"><g><path d="M 3.796875 -1.40625 C 3.796875 -1.125 3.832031 -0.90625 3.90625 -0.75 C 3.976562 -0.601562 4.078125 -0.484375 4.203125 -0.390625 C 4.328125 -0.304688 4.472656 -0.253906 4.640625 -0.234375 C 4.804688 -0.210938 4.992188 -0.203125 5.203125 -0.203125 L 5.203125 0 C 4.867188 0 4.597656 0 4.390625 0 C 4.179688 -0.0078125 4 -0.0195312 3.84375 -0.03125 C 3.6875 -0.0390625 3.535156 -0.046875 3.390625 -0.046875 C 3.253906 -0.0546875 3.097656 -0.0625 2.921875 -0.0625 C 2.722656 -0.0625 2.554688 -0.0546875 2.421875 -0.046875 C 2.285156 -0.046875 2.140625 -0.0390625 1.984375 -0.03125 C 1.835938 -0.0195312 1.660156 -0.0078125 1.453125 0 C 1.242188 0 0.96875 0 0.625 0 L 0.625 -0.203125 C 0.832031 -0.203125 1.019531 -0.210938 1.1875 -0.234375 C 1.363281 -0.253906 1.515625 -0.304688 1.640625 -0.390625 C 1.765625 -0.484375 1.859375 -0.601562 1.921875 -0.75 C 1.992188 -0.90625 2.03125 -1.125 2.03125 -1.40625 L 2.03125 -12.265625 C 2.03125 -12.523438 1.992188 -12.734375 1.921875 -12.890625 C 1.859375 -13.054688 1.765625 -13.179688 1.640625 -13.265625 C 1.515625 -13.347656 1.363281 -13.398438 1.1875 -13.421875 C 1.019531 -13.453125 0.832031 -13.46875 0.625 -13.46875 L 0.625 -13.671875 C 1.144531 -13.710938 1.671875 -13.800781 2.203125 -13.9375 C 2.734375 -14.070312 3.257812 -14.226562 3.78125 -14.40625 L 3.78125 -7.671875 C 4.132812 -8.171875 4.570312 -8.570312 5.09375 -8.875 C 5.613281 -9.175781 6.273438 -9.328125 7.078125 -9.328125 C 7.835938 -9.328125 8.414062 -9.179688 8.8125 -8.890625 C 9.21875 -8.609375 9.515625 -8.265625 9.703125 -7.859375 C 9.898438 -7.453125 10.015625 -7.035156 10.046875 -6.609375 C 10.078125 -6.179688 10.09375 -5.832031 10.09375 -5.5625 L 10.09375 -1.40625 C 10.09375 -1.125 10.128906 -0.90625 10.203125 -0.75 C 10.273438 -0.601562 10.375 -0.484375 10.5 -0.390625 C 10.625 -0.304688 10.769531 -0.253906 10.9375 -0.234375 C 11.101562 -0.210938 11.296875 -0.203125 11.515625 -0.203125 L 11.515625 0 C 11.171875 0 10.894531 0 10.6875 0 C 10.476562 -0.0078125 10.296875 -0.0195312 10.140625 -0.03125 C 9.984375 -0.0390625 9.832031 -0.046875 9.6875 -0.046875 C 9.550781 -0.0546875 9.394531 -0.0625 9.21875 -0.0625 C 9.019531 -0.0625 8.851562 -0.0546875 8.71875 -0.046875 C 8.59375 -0.046875 8.453125 -0.0390625 8.296875 -0.03125 C 8.140625 -0.0195312 7.957031 -0.0078125 7.75 0 C 7.539062 0 7.269531 0 6.9375 0 L 6.9375 -0.203125 C 7.144531 -0.203125 7.332031 -0.210938 7.5 -0.234375 C 7.664062 -0.253906 7.8125 -0.304688 7.9375 -0.390625 C 8.0625 -0.484375 8.160156 -0.601562 8.234375 -0.75 C 8.304688 -0.90625 8.34375 -1.125 8.34375 -1.40625 L 8.34375 -5.75 C 8.34375 -5.914062 8.332031 -6.171875 8.3125 -6.515625 C 8.289062 -6.859375 8.222656 -7.195312 8.109375 -7.53125 C 7.992188 -7.875 7.816406 -8.171875 7.578125 -8.421875 C 7.335938 -8.679688 6.992188 -8.8125 6.546875 -8.8125 C 6.179688 -8.8125 5.832031 -8.742188 5.5 -8.609375 C 5.175781 -8.484375 4.890625 -8.296875 4.640625 -8.046875 C 4.390625 -7.804688 4.1875 -7.515625 4.03125 -7.171875 C 3.875 -6.828125 3.796875 -6.445312 3.796875 -6.03125 Z M 3.796875 -1.40625 "/></g></g></g><g fill="rgb(100%, 100%, 100%)" fill-opacity="1"><g transform="translate(219.175922, 198.602008)"><g/></g></g><g fill="rgb(100%, 100%, 100%)" fill-opacity="1"><g transform="translate(224.066188, 198.602008)"><g><path d="M 0.671875 -0.203125 C 0.898438 -0.203125 1.113281 -0.21875 1.3125 -0.25 C 1.507812 -0.289062 1.6875 -0.359375 1.84375 -0.453125 C 2 -0.554688 2.125 -0.695312 2.21875 -0.875 C 2.3125 -1.050781 2.359375 -1.285156 2.359375 -1.578125 L 2.359375 -12.46875 C 2.359375 -12.769531 2.3125 -13.003906 2.21875 -13.171875 C 2.125 -13.347656 2 -13.484375 1.84375 -13.578125 C 1.6875 -13.679688 1.507812 -13.75 1.3125 -13.78125 C 1.113281 -13.820312 0.898438 -13.84375 0.671875 -13.84375 L 0.671875 -14.046875 C 1.066406 -14.046875 1.378906 -14.039062 1.609375 -14.03125 C 1.847656 -14.03125 2.046875 -14.023438 2.203125 -14.015625 C 2.359375 -14.003906 2.488281 -13.992188 2.59375 -13.984375 C 2.707031 -13.984375 2.84375 -13.984375 3 -13.984375 C 3.28125 -13.984375 3.507812 -13.992188 3.6875 -14.015625 C 3.875 -14.035156 4.128906 -14.046875 4.453125 -14.046875 L 9.015625 -3.234375 L 13.3125 -14.046875 C 13.582031 -14.046875 13.789062 -14.035156 13.9375 -14.015625 C 14.09375 -13.992188 14.332031 -13.984375 14.65625 -13.984375 C 14.84375 -13.984375 15 -13.984375 15.125 -13.984375 C 15.25 -13.992188 15.390625 -14.003906 15.546875 -14.015625 C 15.710938 -14.023438 15.910156 -14.03125 16.140625 -14.03125 C 16.378906 -14.039062 16.703125 -14.046875 17.109375 -14.046875 L 17.109375 -13.84375 C 16.890625 -13.84375 16.675781 -13.820312 16.46875 -13.78125 C 16.269531 -13.75 16.09375 -13.679688 15.9375 -13.578125 C 15.78125 -13.484375 15.65625 -13.347656 15.5625 -13.171875 C 15.476562 -13.003906 15.4375 -12.769531 15.4375 -12.46875 L 15.4375 -1.578125 C 15.4375 -1.285156 15.476562 -1.050781 15.5625 -0.875 C 15.65625 -0.695312 15.78125 -0.554688 15.9375 -0.453125 C 16.09375 -0.359375 16.269531 -0.289062 16.46875 -0.25 C 16.675781 -0.21875 16.890625 -0.203125 17.109375 -0.203125 L 17.109375 0 C 16.691406 0 16.359375 0 16.109375 0 C 15.859375 -0.0078125 15.640625 -0.0195312 15.453125 -0.03125 C 15.273438 -0.0507812 15.101562 -0.0625 14.9375 -0.0625 C 14.78125 -0.0703125 14.585938 -0.078125 14.359375 -0.078125 C 14.117188 -0.078125 13.921875 -0.0703125 13.765625 -0.0625 C 13.617188 -0.0625 13.453125 -0.0507812 13.265625 -0.03125 C 13.085938 -0.0195312 12.875 -0.0078125 12.625 0 C 12.375 0 12.035156 0 11.609375 0 L 11.609375 -0.203125 C 11.835938 -0.203125 12.050781 -0.21875 12.25 -0.25 C 12.457031 -0.289062 12.632812 -0.359375 12.78125 -0.453125 C 12.9375 -0.554688 13.0625 -0.695312 13.15625 -0.875 C 13.25 -1.050781 13.296875 -1.285156 13.296875 -1.578125 L 13.296875 -12.921875 L 8.140625 0.015625 L 8.109375 0.015625 L 2.75 -12.53125 L 2.75 -1.578125 C 2.75 -1.285156 2.796875 -1.050781 2.890625 -0.875 C 2.984375 -0.695312 3.101562 -0.554688 3.25 -0.453125 C 3.40625 -0.359375 3.582031 -0.289062 3.78125 -0.25 C 3.988281 -0.21875 4.207031 -0.203125 4.4375 -0.203125 L 4.4375 0 C 4.15625 0 3.925781 0 3.75 0 C 3.570312 -0.0078125 3.421875 -0.0195312 3.296875 -0.03125 C 3.171875 -0.0390625 3.050781 -0.046875 2.9375 -0.046875 C 2.820312 -0.0546875 2.691406 -0.0625 2.546875 -0.0625 C 2.390625 -0.0625 2.253906 -0.0546875 2.140625 -0.046875 C 2.023438 -0.046875 1.90625 -0.0390625 1.78125 -0.03125 C 1.65625 -0.0195312 1.507812 -0.0078125 1.34375 0 C 1.175781 0 0.953125 0 0.671875 0 Z M 0.671875 -0.203125 "/></g></g></g><g fill="rgb(100%, 100%, 100%)" fill-opacity="1"><g transform="translate(241.94821, 198.602008)"><g><path d="M 4.578125 -9.015625 C 4.441406 -9.015625 4.253906 -9 4.015625 -8.96875 C 3.773438 -8.9375 3.539062 -8.890625 3.3125 -8.828125 C 3.082031 -8.765625 2.878906 -8.679688 2.703125 -8.578125 C 2.535156 -8.472656 2.453125 -8.351562 2.453125 -8.21875 C 2.453125 -8.1875 2.476562 -8.101562 2.53125 -7.96875 C 2.582031 -7.832031 2.609375 -7.660156 2.609375 -7.453125 C 2.609375 -7.285156 2.539062 -7.117188 2.40625 -6.953125 C 2.28125 -6.796875 2.101562 -6.71875 1.875 -6.71875 C 1.695312 -6.71875 1.523438 -6.785156 1.359375 -6.921875 C 1.191406 -7.066406 1.109375 -7.300781 1.109375 -7.625 C 1.109375 -7.945312 1.238281 -8.210938 1.5 -8.421875 C 1.769531 -8.640625 2.09375 -8.816406 2.46875 -8.953125 C 2.851562 -9.085938 3.25 -9.179688 3.65625 -9.234375 C 4.070312 -9.296875 4.425781 -9.328125 4.71875 -9.328125 C 5.195312 -9.328125 5.648438 -9.28125 6.078125 -9.1875 C 6.503906 -9.09375 6.875 -8.929688 7.1875 -8.703125 C 7.507812 -8.484375 7.757812 -8.1875 7.9375 -7.8125 C 8.125 -7.4375 8.21875 -6.960938 8.21875 -6.390625 L 8.21875 -1.78125 C 8.21875 -1.664062 8.222656 -1.539062 8.234375 -1.40625 C 8.242188 -1.269531 8.269531 -1.132812 8.3125 -1 C 8.351562 -0.875 8.421875 -0.765625 8.515625 -0.671875 C 8.609375 -0.585938 8.738281 -0.546875 8.90625 -0.546875 C 9.070312 -0.546875 9.207031 -0.601562 9.3125 -0.71875 C 9.425781 -0.84375 9.519531 -0.960938 9.59375 -1.078125 L 9.78125 -0.984375 C 9.757812 -0.910156 9.703125 -0.804688 9.609375 -0.671875 C 9.515625 -0.546875 9.394531 -0.414062 9.25 -0.28125 C 9.101562 -0.144531 8.925781 -0.0234375 8.71875 0.078125 C 8.519531 0.179688 8.296875 0.234375 8.046875 0.234375 C 7.640625 0.234375 7.296875 0.101562 7.015625 -0.15625 C 6.734375 -0.425781 6.554688 -0.753906 6.484375 -1.140625 C 5.992188 -0.734375 5.484375 -0.398438 4.953125 -0.140625 C 4.421875 0.109375 3.828125 0.234375 3.171875 0.234375 C 2.859375 0.234375 2.566406 0.191406 2.296875 0.109375 C 2.023438 0.0234375 1.785156 -0.101562 1.578125 -0.28125 C 1.367188 -0.457031 1.195312 -0.675781 1.0625 -0.9375 C 0.9375 -1.207031 0.875 -1.523438 0.875 -1.890625 C 0.875 -2.347656 1 -2.726562 1.25 -3.03125 C 1.507812 -3.332031 1.769531 -3.566406 2.03125 -3.734375 C 2.457031 -4.015625 2.9375 -4.265625 3.46875 -4.484375 C 4 -4.703125 4.53125 -4.929688 5.0625 -5.171875 C 5.21875 -5.234375 5.378906 -5.300781 5.546875 -5.375 C 5.710938 -5.457031 5.859375 -5.535156 5.984375 -5.609375 C 6.117188 -5.679688 6.226562 -5.75 6.3125 -5.8125 C 6.40625 -5.875 6.453125 -5.9375 6.453125 -6 L 6.453125 -6.890625 C 6.453125 -7.023438 6.441406 -7.210938 6.421875 -7.453125 C 6.398438 -7.691406 6.332031 -7.925781 6.21875 -8.15625 C 6.101562 -8.382812 5.914062 -8.582031 5.65625 -8.75 C 5.394531 -8.925781 5.035156 -9.015625 4.578125 -9.015625 Z M 6.453125 -5.453125 C 6.046875 -5.242188 5.601562 -5.035156 5.125 -4.828125 C 4.644531 -4.628906 4.234375 -4.410156 3.890625 -4.171875 C 3.484375 -3.898438 3.179688 -3.585938 2.984375 -3.234375 C 2.796875 -2.878906 2.703125 -2.519531 2.703125 -2.15625 C 2.703125 -1.945312 2.726562 -1.742188 2.78125 -1.546875 C 2.84375 -1.359375 2.929688 -1.179688 3.046875 -1.015625 C 3.160156 -0.859375 3.300781 -0.726562 3.46875 -0.625 C 3.632812 -0.53125 3.835938 -0.484375 4.078125 -0.484375 C 4.566406 -0.484375 5.019531 -0.59375 5.4375 -0.8125 C 5.851562 -1.03125 6.191406 -1.269531 6.453125 -1.53125 Z M 6.453125 -5.453125 "/></g></g></g><g fill="rgb(100%, 100%, 100%)" fill-opacity="1"><g transform="translate(251.938638, 198.602008)"><g><path d="M 2.078125 -7.21875 C 2.078125 -7.488281 2.039062 -7.703125 1.96875 -7.859375 C 1.90625 -8.023438 1.804688 -8.148438 1.671875 -8.234375 C 1.546875 -8.316406 1.398438 -8.367188 1.234375 -8.390625 C 1.066406 -8.410156 0.878906 -8.421875 0.671875 -8.421875 L 0.671875 -8.625 C 1.160156 -8.6875 1.628906 -8.78125 2.078125 -8.90625 C 2.535156 -9.039062 2.988281 -9.207031 3.4375 -9.40625 C 3.507812 -9.0625 3.570312 -8.703125 3.625 -8.328125 C 3.675781 -7.953125 3.707031 -7.644531 3.71875 -7.40625 C 4.039062 -8 4.5 -8.46875 5.09375 -8.8125 C 5.6875 -9.15625 6.363281 -9.328125 7.125 -9.328125 C 7.800781 -9.328125 8.335938 -9.195312 8.734375 -8.9375 C 9.128906 -8.6875 9.421875 -8.378906 9.609375 -8.015625 C 9.804688 -7.648438 9.925781 -7.269531 9.96875 -6.875 C 10.007812 -6.476562 10.03125 -6.125 10.03125 -5.8125 L 10.03125 -1.40625 C 10.03125 -1.125 10.066406 -0.90625 10.140625 -0.75 C 10.210938 -0.601562 10.3125 -0.484375 10.4375 -0.390625 C 10.5625 -0.304688 10.707031 -0.253906 10.875 -0.234375 C 11.039062 -0.210938 11.226562 -0.203125 11.4375 -0.203125 L 11.4375 0 C 11.101562 0 10.832031 0 10.625 0 C 10.414062 -0.0078125 10.234375 -0.0195312 10.078125 -0.03125 C 9.921875 -0.0390625 9.769531 -0.046875 9.625 -0.046875 C 9.488281 -0.0546875 9.332031 -0.0625 9.15625 -0.0625 C 8.957031 -0.0625 8.789062 -0.0546875 8.65625 -0.046875 C 8.53125 -0.046875 8.390625 -0.0390625 8.234375 -0.03125 C 8.078125 -0.0195312 7.894531 -0.0078125 7.6875 0 C 7.476562 0 7.203125 0 6.859375 0 L 6.859375 -0.203125 C 7.078125 -0.203125 7.269531 -0.210938 7.4375 -0.234375 C 7.601562 -0.253906 7.75 -0.304688 7.875 -0.390625 C 8 -0.484375 8.097656 -0.601562 8.171875 -0.75 C 8.242188 -0.90625 8.28125 -1.125 8.28125 -1.40625 L 8.28125 -5.90625 C 8.28125 -6.070312 8.269531 -6.316406 8.25 -6.640625 C 8.226562 -6.960938 8.160156 -7.285156 8.046875 -7.609375 C 7.929688 -7.941406 7.753906 -8.222656 7.515625 -8.453125 C 7.273438 -8.691406 6.941406 -8.8125 6.515625 -8.8125 C 6.191406 -8.8125 5.867188 -8.738281 5.546875 -8.59375 C 5.222656 -8.445312 4.9375 -8.25 4.6875 -8 C 4.4375 -7.75 4.234375 -7.460938 4.078125 -7.140625 C 3.921875 -6.816406 3.84375 -6.476562 3.84375 -6.125 L 3.84375 -1.40625 C 3.84375 -1.125 3.875 -0.90625 3.9375 -0.75 C 4.007812 -0.601562 4.109375 -0.484375 4.234375 -0.390625 C 4.367188 -0.304688 4.519531 -0.253906 4.6875 -0.234375 C 4.851562 -0.210938 5.039062 -0.203125 5.25 -0.203125 L 5.25 0 C 4.914062 0 4.640625 0 4.421875 0 C 4.210938 -0.0078125 4.03125 -0.0195312 3.875 -0.03125 C 3.726562 -0.0390625 3.582031 -0.046875 3.4375 -0.046875 C 3.300781 -0.0546875 3.144531 -0.0625 2.96875 -0.0625 C 2.769531 -0.0625 2.601562 -0.0546875 2.46875 -0.046875 C 2.332031 -0.046875 2.1875 -0.0390625 2.03125 -0.03125 C 1.882812 -0.0195312 1.703125 -0.0078125 1.484375 0 C 1.273438 0 1.003906 0 0.671875 0 L 0.671875 -0.203125 C 0.878906 -0.203125 1.066406 -0.210938 1.234375 -0.234375 C 1.398438 -0.253906 1.546875 -0.304688 1.671875 -0.390625 C 1.804688 -0.484375 1.90625 -0.601562 1.96875 -0.75 C 2.039062 -0.90625 2.078125 -1.125 2.078125 -1.40625 Z M 2.078125 -7.21875 "/></g></g></g><g fill="rgb(100%, 100%, 100%)" fill-opacity="1"><g transform="translate(263.797017, 198.602008)"><g><path d="M 4.578125 -9.015625 C 4.441406 -9.015625 4.253906 -9 4.015625 -8.96875 C 3.773438 -8.9375 3.539062 -8.890625 3.3125 -8.828125 C 3.082031 -8.765625 2.878906 -8.679688 2.703125 -8.578125 C 2.535156 -8.472656 2.453125 -8.351562 2.453125 -8.21875 C 2.453125 -8.1875 2.476562 -8.101562 2.53125 -7.96875 C 2.582031 -7.832031 2.609375 -7.660156 2.609375 -7.453125 C 2.609375 -7.285156 2.539062 -7.117188 2.40625 -6.953125 C 2.28125 -6.796875 2.101562 -6.71875 1.875 -6.71875 C 1.695312 -6.71875 1.523438 -6.785156 1.359375 -6.921875 C 1.191406 -7.066406 1.109375 -7.300781 1.109375 -7.625 C 1.109375 -7.945312 1.238281 -8.210938 1.5 -8.421875 C 1.769531 -8.640625 2.09375 -8.816406 2.46875 -8.953125 C 2.851562 -9.085938 3.25 -9.179688 3.65625 -9.234375 C 4.070312 -9.296875 4.425781 -9.328125 4.71875 -9.328125 C 5.195312 -9.328125 5.648438 -9.28125 6.078125 -9.1875 C 6.503906 -9.09375 6.875 -8.929688 7.1875 -8.703125 C 7.507812 -8.484375 7.757812 -8.1875 7.9375 -7.8125 C 8.125 -7.4375 8.21875 -6.960938 8.21875 -6.390625 L 8.21875 -1.78125 C 8.21875 -1.664062 8.222656 -1.539062 8.234375 -1.40625 C 8.242188 -1.269531 8.269531 -1.132812 8.3125 -1 C 8.351562 -0.875 8.421875 -0.765625 8.515625 -0.671875 C 8.609375 -0.585938 8.738281 -0.546875 8.90625 -0.546875 C 9.070312 -0.546875 9.207031 -0.601562 9.3125 -0.71875 C 9.425781 -0.84375 9.519531 -0.960938 9.59375 -1.078125 L 9.78125 -0.984375 C 9.757812 -0.910156 9.703125 -0.804688 9.609375 -0.671875 C 9.515625 -0.546875 9.394531 -0.414062 9.25 -0.28125 C 9.101562 -0.144531 8.925781 -0.0234375 8.71875 0.078125 C 8.519531 0.179688 8.296875 0.234375 8.046875 0.234375 C 7.640625 0.234375 7.296875 0.101562 7.015625 -0.15625 C 6.734375 -0.425781 6.554688 -0.753906 6.484375 -1.140625 C 5.992188 -0.734375 5.484375 -0.398438 4.953125 -0.140625 C 4.421875 0.109375 3.828125 0.234375 3.171875 0.234375 C 2.859375 0.234375 2.566406 0.191406 2.296875 0.109375 C 2.023438 0.0234375 1.785156 -0.101562 1.578125 -0.28125 C 1.367188 -0.457031 1.195312 -0.675781 1.0625 -0.9375 C 0.9375 -1.207031 0.875 -1.523438 0.875 -1.890625 C 0.875 -2.347656 1 -2.726562 1.25 -3.03125 C 1.507812 -3.332031 1.769531 -3.566406 2.03125 -3.734375 C 2.457031 -4.015625 2.9375 -4.265625 3.46875 -4.484375 C 4 -4.703125 4.53125 -4.929688 5.0625 -5.171875 C 5.21875 -5.234375 5.378906 -5.300781 5.546875 -5.375 C 5.710938 -5.457031 5.859375 -5.535156 5.984375 -5.609375 C 6.117188 -5.679688 6.226562 -5.75 6.3125 -5.8125 C 6.40625 -5.875 6.453125 -5.9375 6.453125 -6 L 6.453125 -6.890625 C 6.453125 -7.023438 6.441406 -7.210938 6.421875 -7.453125 C 6.398438 -7.691406 6.332031 -7.925781 6.21875 -8.15625 C 6.101562 -8.382812 5.914062 -8.582031 5.65625 -8.75 C 5.394531 -8.925781 5.035156 -9.015625 4.578125 -9.015625 Z M 6.453125 -5.453125 C 6.046875 -5.242188 5.601562 -5.035156 5.125 -4.828125 C 4.644531 -4.628906 4.234375 -4.410156 3.890625 -4.171875 C 3.484375 -3.898438 3.179688 -3.585938 2.984375 -3.234375 C 2.796875 -2.878906 2.703125 -2.519531 2.703125 -2.15625 C 2.703125 -1.945312 2.726562 -1.742188 2.78125 -1.546875 C 2.84375 -1.359375 2.929688 -1.179688 3.046875 -1.015625 C 3.160156 -0.859375 3.300781 -0.726562 3.46875 -0.625 C 3.632812 -0.53125 3.835938 -0.484375 4.078125 -0.484375 C 4.566406 -0.484375 5.019531 -0.59375 5.4375 -0.8125 C 5.851562 -1.03125 6.191406 -1.269531 6.453125 -1.53125 Z M 6.453125 -5.453125 "/></g></g></g><g fill="rgb(100%, 100%, 100%)" fill-opacity="1"><g transform="translate(273.787445, 198.602008)"><g><path d="M 7.734375 -7.984375 C 7.992188 -7.671875 8.191406 -7.335938 8.328125 -6.984375 C 8.460938 -6.640625 8.53125 -6.289062 8.53125 -5.9375 C 8.53125 -5.601562 8.484375 -5.25 8.390625 -4.875 C 8.296875 -4.507812 8.113281 -4.164062 7.84375 -3.84375 C 7.582031 -3.53125 7.210938 -3.265625 6.734375 -3.046875 C 6.265625 -2.835938 5.648438 -2.703125 4.890625 -2.640625 C 4.734375 -2.628906 4.507812 -2.625 4.21875 -2.625 C 3.925781 -2.625 3.632812 -2.597656 3.34375 -2.546875 C 3.0625 -2.503906 2.8125 -2.421875 2.59375 -2.296875 C 2.382812 -2.179688 2.28125 -2 2.28125 -1.75 C 2.28125 -1.507812 2.394531 -1.332031 2.625 -1.21875 C 2.851562 -1.101562 3.132812 -1.023438 3.46875 -0.984375 C 3.800781 -0.941406 4.171875 -0.914062 4.578125 -0.90625 C 4.984375 -0.90625 5.375 -0.894531 5.75 -0.875 C 6.28125 -0.851562 6.785156 -0.796875 7.265625 -0.703125 C 7.753906 -0.609375 8.179688 -0.445312 8.546875 -0.21875 C 8.921875 0.0078125 9.21875 0.316406 9.4375 0.703125 C 9.664062 1.085938 9.78125 1.570312 9.78125 2.15625 C 9.78125 2.695312 9.664062 3.1875 9.4375 3.625 C 9.207031 4.0625 8.882812 4.4375 8.46875 4.75 C 8.0625 5.070312 7.566406 5.320312 6.984375 5.5 C 6.410156 5.6875 5.789062 5.78125 5.125 5.78125 C 4.195312 5.78125 3.441406 5.675781 2.859375 5.46875 C 2.285156 5.269531 1.832031 5.019531 1.5 4.71875 C 1.175781 4.425781 0.957031 4.109375 0.84375 3.765625 C 0.726562 3.421875 0.671875 3.109375 0.671875 2.828125 C 0.671875 2.609375 0.710938 2.394531 0.796875 2.1875 C 0.878906 1.988281 0.992188 1.816406 1.140625 1.671875 C 1.285156 1.523438 1.453125 1.40625 1.640625 1.3125 C 1.835938 1.21875 2.039062 1.171875 2.25 1.171875 C 2.488281 1.171875 2.671875 1.210938 2.796875 1.296875 C 2.929688 1.378906 3.035156 1.460938 3.109375 1.546875 C 2.742188 1.660156 2.46875 1.847656 2.28125 2.109375 C 2.101562 2.378906 2.015625 2.695312 2.015625 3.0625 C 2.015625 3.257812 2.046875 3.492188 2.109375 3.765625 C 2.171875 4.035156 2.3125 4.296875 2.53125 4.546875 C 2.75 4.804688 3.0625 5.019531 3.46875 5.1875 C 3.882812 5.363281 4.441406 5.453125 5.140625 5.453125 C 5.734375 5.453125 6.238281 5.378906 6.65625 5.234375 C 7.070312 5.085938 7.421875 4.894531 7.703125 4.65625 C 7.984375 4.425781 8.191406 4.164062 8.328125 3.875 C 8.460938 3.582031 8.53125 3.289062 8.53125 3 C 8.53125 2.476562 8.421875 2.070312 8.203125 1.78125 C 7.984375 1.5 7.679688 1.285156 7.296875 1.140625 C 6.921875 1.003906 6.484375 0.921875 5.984375 0.890625 C 5.492188 0.867188 4.976562 0.851562 4.4375 0.84375 C 4.132812 0.820312 3.800781 0.796875 3.4375 0.765625 C 3.070312 0.734375 2.734375 0.65625 2.421875 0.53125 C 2.109375 0.414062 1.847656 0.238281 1.640625 0 C 1.429688 -0.238281 1.328125 -0.566406 1.328125 -0.984375 C 1.328125 -1.472656 1.515625 -1.890625 1.890625 -2.234375 C 2.265625 -2.585938 2.75 -2.800781 3.34375 -2.875 C 2.65625 -3.113281 2.085938 -3.5 1.640625 -4.03125 C 1.191406 -4.570312 0.96875 -5.207031 0.96875 -5.9375 C 0.96875 -6.40625 1.054688 -6.84375 1.234375 -7.25 C 1.421875 -7.65625 1.675781 -8.003906 2 -8.296875 C 2.332031 -8.597656 2.734375 -8.835938 3.203125 -9.015625 C 3.671875 -9.191406 4.195312 -9.28125 4.78125 -9.28125 C 5.175781 -9.28125 5.523438 -9.238281 5.828125 -9.15625 C 6.140625 -9.070312 6.40625 -8.972656 6.625 -8.859375 C 6.84375 -8.742188 7.019531 -8.628906 7.15625 -8.515625 C 7.300781 -8.398438 7.414062 -8.300781 7.5 -8.21875 C 7.625 -8.3125 7.757812 -8.414062 7.90625 -8.53125 C 8.0625 -8.65625 8.226562 -8.765625 8.40625 -8.859375 C 8.582031 -8.960938 8.765625 -9.046875 8.953125 -9.109375 C 9.140625 -9.179688 9.332031 -9.21875 9.53125 -9.21875 C 9.675781 -9.21875 9.820312 -9.195312 9.96875 -9.15625 C 10.113281 -9.113281 10.242188 -9.050781 10.359375 -8.96875 C 10.484375 -8.894531 10.582031 -8.796875 10.65625 -8.671875 C 10.726562 -8.554688 10.765625 -8.425781 10.765625 -8.28125 C 10.765625 -7.832031 10.554688 -7.609375 10.140625 -7.609375 C 9.941406 -7.609375 9.785156 -7.648438 9.671875 -7.734375 C 9.566406 -7.828125 9.472656 -7.929688 9.390625 -8.046875 C 9.316406 -8.160156 9.257812 -8.265625 9.21875 -8.359375 C 9.1875 -8.453125 9.164062 -8.507812 9.15625 -8.53125 C 9.082031 -8.582031 8.992188 -8.609375 8.890625 -8.609375 C 8.691406 -8.609375 8.484375 -8.535156 8.265625 -8.390625 C 8.054688 -8.253906 7.878906 -8.117188 7.734375 -7.984375 Z M 2.765625 -5.921875 C 2.765625 -5.347656 2.832031 -4.867188 2.96875 -4.484375 C 3.101562 -4.097656 3.269531 -3.789062 3.46875 -3.5625 C 3.664062 -3.34375 3.878906 -3.1875 4.109375 -3.09375 C 4.335938 -3.007812 4.550781 -2.96875 4.75 -2.96875 C 4.957031 -2.96875 5.179688 -3.007812 5.421875 -3.09375 C 5.660156 -3.1875 5.875 -3.34375 6.0625 -3.5625 C 6.25 -3.789062 6.40625 -4.097656 6.53125 -4.484375 C 6.65625 -4.867188 6.71875 -5.347656 6.71875 -5.921875 C 6.71875 -6.546875 6.648438 -7.054688 6.515625 -7.453125 C 6.390625 -7.859375 6.226562 -8.171875 6.03125 -8.390625 C 5.832031 -8.617188 5.617188 -8.769531 5.390625 -8.84375 C 5.171875 -8.925781 4.960938 -8.96875 4.765625 -8.96875 C 4.566406 -8.96875 4.347656 -8.925781 4.109375 -8.84375 C 3.878906 -8.769531 3.664062 -8.617188 3.46875 -8.390625 C 3.269531 -8.171875 3.101562 -7.859375 2.96875 -7.453125 C 2.832031 -7.054688 2.765625 -6.546875 2.765625 -5.921875 Z M 2.765625 -5.921875 "/></g></g></g><g fill="rgb(100%, 100%, 100%)" fill-opacity="1"><g transform="translate(285.121124, 198.602008)"><g><path d="M 8.984375 -1.421875 C 8.828125 -1.242188 8.640625 -1.054688 8.421875 -0.859375 C 8.210938 -0.660156 7.957031 -0.476562 7.65625 -0.3125 C 7.363281 -0.144531 7.035156 -0.0078125 6.671875 0.09375 C 6.304688 0.195312 5.898438 0.25 5.453125 0.25 C 4.867188 0.25 4.300781 0.148438 3.75 -0.046875 C 3.195312 -0.253906 2.707031 -0.550781 2.28125 -0.9375 C 1.851562 -1.332031 1.503906 -1.820312 1.234375 -2.40625 C 0.972656 -2.988281 0.84375 -3.648438 0.84375 -4.390625 C 0.84375 -5.054688 0.957031 -5.679688 1.1875 -6.265625 C 1.425781 -6.859375 1.757812 -7.378906 2.1875 -7.828125 C 2.613281 -8.273438 3.113281 -8.628906 3.6875 -8.890625 C 4.269531 -9.148438 4.894531 -9.28125 5.5625 -9.28125 C 6.050781 -9.28125 6.523438 -9.195312 6.984375 -9.03125 C 7.441406 -8.875 7.835938 -8.648438 8.171875 -8.359375 C 8.515625 -8.066406 8.796875 -7.71875 9.015625 -7.3125 C 9.242188 -6.90625 9.375 -6.460938 9.40625 -5.984375 C 9.40625 -5.898438 9.398438 -5.820312 9.390625 -5.75 C 9.390625 -5.6875 9.351562 -5.65625 9.28125 -5.65625 L 2.921875 -5.65625 C 2.890625 -5.457031 2.863281 -5.25 2.84375 -5.03125 C 2.832031 -4.8125 2.828125 -4.601562 2.828125 -4.40625 C 2.828125 -3.0625 3.117188 -2.03125 3.703125 -1.3125 C 4.296875 -0.601562 5.0625 -0.25 6 -0.25 C 6.382812 -0.25 6.722656 -0.296875 7.015625 -0.390625 C 7.304688 -0.484375 7.566406 -0.59375 7.796875 -0.71875 C 8.023438 -0.851562 8.222656 -1 8.390625 -1.15625 C 8.566406 -1.3125 8.71875 -1.453125 8.84375 -1.578125 Z M 7.265625 -5.96875 C 7.492188 -5.96875 7.609375 -6.078125 7.609375 -6.296875 C 7.609375 -6.566406 7.570312 -6.859375 7.5 -7.171875 C 7.4375 -7.484375 7.328125 -7.769531 7.171875 -8.03125 C 7.023438 -8.300781 6.816406 -8.523438 6.546875 -8.703125 C 6.285156 -8.878906 5.941406 -8.96875 5.515625 -8.96875 C 5.046875 -8.96875 4.65625 -8.863281 4.34375 -8.65625 C 4.039062 -8.457031 3.789062 -8.203125 3.59375 -7.890625 C 3.40625 -7.585938 3.265625 -7.265625 3.171875 -6.921875 C 3.085938 -6.578125 3.019531 -6.257812 2.96875 -5.96875 Z M 7.265625 -5.96875 "/></g></g></g><g fill="rgb(100%, 100%, 100%)" fill-opacity="1"><g transform="translate(295.300437, 198.602008)"><g><path d="M 9.640625 -1.40625 C 9.640625 -1.125 9.671875 -0.90625 9.734375 -0.75 C 9.804688 -0.601562 9.90625 -0.484375 10.03125 -0.390625 C 10.164062 -0.304688 10.316406 -0.253906 10.484375 -0.234375 C 10.648438 -0.210938 10.835938 -0.203125 11.046875 -0.203125 L 11.046875 0 C 10.710938 0 10.4375 0 10.21875 0 C 10.007812 -0.0078125 9.828125 -0.0195312 9.671875 -0.03125 C 9.523438 -0.0390625 9.378906 -0.046875 9.234375 -0.046875 C 9.097656 -0.0546875 8.9375 -0.0625 8.75 -0.0625 C 8.5625 -0.0625 8.398438 -0.0546875 8.265625 -0.046875 C 8.128906 -0.046875 7.984375 -0.0390625 7.828125 -0.03125 C 7.679688 -0.0195312 7.5 -0.0078125 7.28125 0 C 7.070312 0 6.800781 0 6.46875 0 L 6.46875 -0.203125 C 6.675781 -0.203125 6.863281 -0.210938 7.03125 -0.234375 C 7.195312 -0.253906 7.34375 -0.304688 7.46875 -0.390625 C 7.601562 -0.484375 7.703125 -0.601562 7.765625 -0.75 C 7.835938 -0.90625 7.875 -1.125 7.875 -1.40625 L 7.875 -5.6875 C 7.875 -5.894531 7.863281 -6.175781 7.84375 -6.53125 C 7.820312 -6.894531 7.757812 -7.242188 7.65625 -7.578125 C 7.550781 -7.910156 7.375 -8.203125 7.125 -8.453125 C 6.882812 -8.710938 6.546875 -8.84375 6.109375 -8.84375 C 5.816406 -8.84375 5.53125 -8.765625 5.25 -8.609375 C 4.976562 -8.453125 4.738281 -8.238281 4.53125 -7.96875 C 4.320312 -7.707031 4.15625 -7.410156 4.03125 -7.078125 C 3.90625 -6.742188 3.84375 -6.382812 3.84375 -6 L 3.84375 -1.40625 C 3.84375 -1.125 3.875 -0.90625 3.9375 -0.75 C 4.007812 -0.601562 4.109375 -0.484375 4.234375 -0.390625 C 4.367188 -0.304688 4.519531 -0.253906 4.6875 -0.234375 C 4.851562 -0.210938 5.039062 -0.203125 5.25 -0.203125 L 5.25 0 C 4.914062 0 4.640625 0 4.421875 0 C 4.210938 -0.0078125 4.03125 -0.0195312 3.875 -0.03125 C 3.726562 -0.0390625 3.582031 -0.046875 3.4375 -0.046875 C 3.300781 -0.0546875 3.144531 -0.0625 2.96875 -0.0625 C 2.769531 -0.0625 2.601562 -0.0546875 2.46875 -0.046875 C 2.332031 -0.046875 2.1875 -0.0390625 2.03125 -0.03125 C 1.882812 -0.0195312 1.703125 -0.0078125 1.484375 0 C 1.273438 0 1.003906 0 0.671875 0 L 0.671875 -0.203125 C 0.878906 -0.203125 1.066406 -0.210938 1.234375 -0.234375 C 1.398438 -0.253906 1.546875 -0.304688 1.671875 -0.390625 C 1.804688 -0.484375 1.90625 -0.601562 1.96875 -0.75 C 2.039062 -0.90625 2.078125 -1.125 2.078125 -1.40625 L 2.078125 -7.21875 C 2.078125 -7.488281 2.039062 -7.703125 1.96875 -7.859375 C 1.90625 -8.023438 1.804688 -8.148438 1.671875 -8.234375 C 1.546875 -8.316406 1.398438 -8.367188 1.234375 -8.390625 C 1.066406 -8.410156 0.878906 -8.421875 0.671875 -8.421875 L 0.671875 -8.625 C 1.160156 -8.6875 1.628906 -8.78125 2.078125 -8.90625 C 2.535156 -9.039062 2.988281 -9.207031 3.4375 -9.40625 C 3.507812 -9.039062 3.5625 -8.710938 3.59375 -8.421875 C 3.632812 -8.140625 3.671875 -7.796875 3.703125 -7.390625 C 3.972656 -8.035156 4.378906 -8.519531 4.921875 -8.84375 C 5.472656 -9.164062 6.09375 -9.328125 6.78125 -9.328125 C 7.375 -9.328125 7.890625 -9.171875 8.328125 -8.859375 C 8.765625 -8.554688 9.101562 -8.160156 9.34375 -7.671875 C 9.707031 -8.296875 10.144531 -8.726562 10.65625 -8.96875 C 11.175781 -9.207031 11.78125 -9.328125 12.46875 -9.328125 C 13.144531 -9.328125 13.675781 -9.203125 14.0625 -8.953125 C 14.457031 -8.710938 14.753906 -8.410156 14.953125 -8.046875 C 15.160156 -7.679688 15.289062 -7.285156 15.34375 -6.859375 C 15.40625 -6.441406 15.4375 -6.050781 15.4375 -5.6875 L 15.4375 -1.40625 C 15.4375 -1.125 15.46875 -0.90625 15.53125 -0.75 C 15.601562 -0.601562 15.703125 -0.484375 15.828125 -0.390625 C 15.953125 -0.304688 16.097656 -0.253906 16.265625 -0.234375 C 16.441406 -0.210938 16.632812 -0.203125 16.84375 -0.203125 L 16.84375 0 C 16.507812 0 16.234375 0 16.015625 0 C 15.804688 -0.0078125 15.625 -0.0195312 15.46875 -0.03125 C 15.320312 -0.0390625 15.175781 -0.046875 15.03125 -0.046875 C 14.894531 -0.0546875 14.734375 -0.0625 14.546875 -0.0625 C 14.359375 -0.0625 14.195312 -0.0546875 14.0625 -0.046875 C 13.925781 -0.046875 13.78125 -0.0390625 13.625 -0.03125 C 13.46875 -0.0195312 13.285156 -0.0078125 13.078125 0 C 12.867188 0 12.597656 0 12.265625 0 L 12.265625 -0.203125 C 12.472656 -0.203125 12.660156 -0.210938 12.828125 -0.234375 C 12.992188 -0.253906 13.140625 -0.304688 13.265625 -0.390625 C 13.398438 -0.484375 13.5 -0.601562 13.5625 -0.75 C 13.632812 -0.90625 13.671875 -1.125 13.671875 -1.40625 L 13.671875 -5.90625 C 13.671875 -6.050781 13.660156 -6.289062 13.640625 -6.625 C 13.617188 -6.96875 13.550781 -7.304688 13.4375 -7.640625 C 13.320312 -7.972656 13.144531 -8.269531 12.90625 -8.53125 C 12.675781 -8.789062 12.347656 -8.921875 11.921875 -8.921875 C 11.660156 -8.921875 11.390625 -8.867188 11.109375 -8.765625 C 10.835938 -8.660156 10.59375 -8.503906 10.375 -8.296875 C 10.164062 -8.085938 9.988281 -7.820312 9.84375 -7.5 C 9.707031 -7.1875 9.640625 -6.820312 9.640625 -6.40625 Z M 9.640625 -1.40625 "/></g></g></g><g fill="rgb(100%, 100%, 100%)" fill-opacity="1"><g transform="translate(312.699724, 198.602008)"><g><path d="M 8.984375 -1.421875 C 8.828125 -1.242188 8.640625 -1.054688 8.421875 -0.859375 C 8.210938 -0.660156 7.957031 -0.476562 7.65625 -0.3125 C 7.363281 -0.144531 7.035156 -0.0078125 6.671875 0.09375 C 6.304688 0.195312 5.898438 0.25 5.453125 0.25 C 4.867188 0.25 4.300781 0.148438 3.75 -0.046875 C 3.195312 -0.253906 2.707031 -0.550781 2.28125 -0.9375 C 1.851562 -1.332031 1.503906 -1.820312 1.234375 -2.40625 C 0.972656 -2.988281 0.84375 -3.648438 0.84375 -4.390625 C 0.84375 -5.054688 0.957031 -5.679688 1.1875 -6.265625 C 1.425781 -6.859375 1.757812 -7.378906 2.1875 -7.828125 C 2.613281 -8.273438 3.113281 -8.628906 3.6875 -8.890625 C 4.269531 -9.148438 4.894531 -9.28125 5.5625 -9.28125 C 6.050781 -9.28125 6.523438 -9.195312 6.984375 -9.03125 C 7.441406 -8.875 7.835938 -8.648438 8.171875 -8.359375 C 8.515625 -8.066406 8.796875 -7.71875 9.015625 -7.3125 C 9.242188 -6.90625 9.375 -6.460938 9.40625 -5.984375 C 9.40625 -5.898438 9.398438 -5.820312 9.390625 -5.75 C 9.390625 -5.6875 9.351562 -5.65625 9.28125 -5.65625 L 2.921875 -5.65625 C 2.890625 -5.457031 2.863281 -5.25 2.84375 -5.03125 C 2.832031 -4.8125 2.828125 -4.601562 2.828125 -4.40625 C 2.828125 -3.0625 3.117188 -2.03125 3.703125 -1.3125 C 4.296875 -0.601562 5.0625 -0.25 6 -0.25 C 6.382812 -0.25 6.722656 -0.296875 7.015625 -0.390625 C 7.304688 -0.484375 7.566406 -0.59375 7.796875 -0.71875 C 8.023438 -0.851562 8.222656 -1 8.390625 -1.15625 C 8.566406 -1.3125 8.71875 -1.453125 8.84375 -1.578125 Z M 7.265625 -5.96875 C 7.492188 -5.96875 7.609375 -6.078125 7.609375 -6.296875 C 7.609375 -6.566406 7.570312 -6.859375 7.5 -7.171875 C 7.4375 -7.484375 7.328125 -7.769531 7.171875 -8.03125 C 7.023438 -8.300781 6.816406 -8.523438 6.546875 -8.703125 C 6.285156 -8.878906 5.941406 -8.96875 5.515625 -8.96875 C 5.046875 -8.96875 4.65625 -8.863281 4.34375 -8.65625 C 4.039062 -8.457031 3.789062 -8.203125 3.59375 -7.890625 C 3.40625 -7.585938 3.265625 -7.265625 3.171875 -6.921875 C 3.085938 -6.578125 3.019531 -6.257812 2.96875 -5.96875 Z M 7.265625 -5.96875 "/></g></g></g><g fill="rgb(100%, 100%, 100%)" fill-opacity="1"><g transform="translate(322.879037, 198.602008)"><g><path d="M 2.078125 -7.21875 C 2.078125 -7.488281 2.039062 -7.703125 1.96875 -7.859375 C 1.90625 -8.023438 1.804688 -8.148438 1.671875 -8.234375 C 1.546875 -8.316406 1.398438 -8.367188 1.234375 -8.390625 C 1.066406 -8.410156 0.878906 -8.421875 0.671875 -8.421875 L 0.671875 -8.625 C 1.160156 -8.6875 1.628906 -8.78125 2.078125 -8.90625 C 2.535156 -9.039062 2.988281 -9.207031 3.4375 -9.40625 C 3.507812 -9.0625 3.570312 -8.703125 3.625 -8.328125 C 3.675781 -7.953125 3.707031 -7.644531 3.71875 -7.40625 C 4.039062 -8 4.5 -8.46875 5.09375 -8.8125 C 5.6875 -9.15625 6.363281 -9.328125 7.125 -9.328125 C 7.800781 -9.328125 8.335938 -9.195312 8.734375 -8.9375 C 9.128906 -8.6875 9.421875 -8.378906 9.609375 -8.015625 C 9.804688 -7.648438 9.925781 -7.269531 9.96875 -6.875 C 10.007812 -6.476562 10.03125 -6.125 10.03125 -5.8125 L 10.03125 -1.40625 C 10.03125 -1.125 10.066406 -0.90625 10.140625 -0.75 C 10.210938 -0.601562 10.3125 -0.484375 10.4375 -0.390625 C 10.5625 -0.304688 10.707031 -0.253906 10.875 -0.234375 C 11.039062 -0.210938 11.226562 -0.203125 11.4375 -0.203125 L 11.4375 0 C 11.101562 0 10.832031 0 10.625 0 C 10.414062 -0.0078125 10.234375 -0.0195312 10.078125 -0.03125 C 9.921875 -0.0390625 9.769531 -0.046875 9.625 -0.046875 C 9.488281 -0.0546875 9.332031 -0.0625 9.15625 -0.0625 C 8.957031 -0.0625 8.789062 -0.0546875 8.65625 -0.046875 C 8.53125 -0.046875 8.390625 -0.0390625 8.234375 -0.03125 C 8.078125 -0.0195312 7.894531 -0.0078125 7.6875 0 C 7.476562 0 7.203125 0 6.859375 0 L 6.859375 -0.203125 C 7.078125 -0.203125 7.269531 -0.210938 7.4375 -0.234375 C 7.601562 -0.253906 7.75 -0.304688 7.875 -0.390625 C 8 -0.484375 8.097656 -0.601562 8.171875 -0.75 C 8.242188 -0.90625 8.28125 -1.125 8.28125 -1.40625 L 8.28125 -5.90625 C 8.28125 -6.070312 8.269531 -6.316406 8.25 -6.640625 C 8.226562 -6.960938 8.160156 -7.285156 8.046875 -7.609375 C 7.929688 -7.941406 7.753906 -8.222656 7.515625 -8.453125 C 7.273438 -8.691406 6.941406 -8.8125 6.515625 -8.8125 C 6.191406 -8.8125 5.867188 -8.738281 5.546875 -8.59375 C 5.222656 -8.445312 4.9375 -8.25 4.6875 -8 C 4.4375 -7.75 4.234375 -7.460938 4.078125 -7.140625 C 3.921875 -6.816406 3.84375 -6.476562 3.84375 -6.125 L 3.84375 -1.40625 C 3.84375 -1.125 3.875 -0.90625 3.9375 -0.75 C 4.007812 -0.601562 4.109375 -0.484375 4.234375 -0.390625 C 4.367188 -0.304688 4.519531 -0.253906 4.6875 -0.234375 C 4.851562 -0.210938 5.039062 -0.203125 5.25 -0.203125 L 5.25 0 C 4.914062 0 4.640625 0 4.421875 0 C 4.210938 -0.0078125 4.03125 -0.0195312 3.875 -0.03125 C 3.726562 -0.0390625 3.582031 -0.046875 3.4375 -0.046875 C 3.300781 -0.0546875 3.144531 -0.0625 2.96875 -0.0625 C 2.769531 -0.0625 2.601562 -0.0546875 2.46875 -0.046875 C 2.332031 -0.046875 2.1875 -0.0390625 2.03125 -0.03125 C 1.882812 -0.0195312 1.703125 -0.0078125 1.484375 0 C 1.273438 0 1.003906 0 0.671875 0 L 0.671875 -0.203125 C 0.878906 -0.203125 1.066406 -0.210938 1.234375 -0.234375 C 1.398438 -0.253906 1.546875 -0.304688 1.671875 -0.390625 C 1.804688 -0.484375 1.90625 -0.601562 1.96875 -0.75 C 2.039062 -0.90625 2.078125 -1.125 2.078125 -1.40625 Z M 2.078125 -7.21875 "/></g></g></g><g fill="rgb(100%, 100%, 100%)" fill-opacity="1"><g transform="translate(334.737415, 198.602008)"><g><path d="M 4.4375 0.25 C 3.945312 0.25 3.539062 0.175781 3.21875 0.03125 C 2.894531 -0.101562 2.632812 -0.289062 2.4375 -0.53125 C 2.25 -0.78125 2.117188 -1.066406 2.046875 -1.390625 C 1.972656 -1.710938 1.9375 -2.054688 1.9375 -2.421875 L 1.9375 -8.671875 L 0.734375 -8.671875 L 0.734375 -8.890625 C 1.316406 -9.097656 1.859375 -9.445312 2.359375 -9.9375 C 2.859375 -10.425781 3.226562 -10.960938 3.46875 -11.546875 L 3.703125 -11.546875 L 3.703125 -8.984375 L 5.875 -8.984375 L 5.875 -8.671875 L 3.703125 -8.671875 L 3.703125 -2.9375 C 3.703125 -2.613281 3.710938 -2.296875 3.734375 -1.984375 C 3.753906 -1.671875 3.804688 -1.382812 3.890625 -1.125 C 3.984375 -0.875 4.117188 -0.671875 4.296875 -0.515625 C 4.484375 -0.367188 4.738281 -0.296875 5.0625 -0.296875 C 5.457031 -0.296875 5.769531 -0.378906 6 -0.546875 C 6.226562 -0.722656 6.421875 -0.929688 6.578125 -1.171875 L 6.734375 -1.046875 C 6.546875 -0.722656 6.265625 -0.425781 5.890625 -0.15625 C 5.515625 0.113281 5.03125 0.25 4.4375 0.25 Z M 4.4375 0.25 "/></g></g></g></svg>