<svg xmlns="http://www.w3.org/2000/svg" xmlns:xlink="http://www.w3.org/1999/xlink" width="300" zoomAndPan="magnify" viewBox="0 0 224.87999 44.999999" height="60" preserveAspectRatio="xMidYMid meet" version="1.0"><defs><g/><clipPath id="id1"><path d="M 13.199219 6.105469 L 37 6.105469 L 37 39.089844 L 13.199219 39.089844 Z M 13.199219 6.105469 " clip-rule="nonzero"/></clipPath></defs><path fill="rgb(100%, 100%, 100%)" d="M 43.359375 32.933594 L 43.359375 11.945312 L 24.992188 1.453125 L 6.628906 11.945312 L 6.628906 32.933594 L 24.992188 43.429688 L 43.359375 32.933594 M 7.625 32.363281 L 7.625 12.515625 L 24.992188 2.59375 L 42.363281 12.515625 L 42.363281 32.363281 L 24.992188 42.285156 L 7.625 32.363281 " fill-opacity="1" fill-rule="nonzero"/><g clip-path="url(#id1)"><path fill="rgb(100%, 100%, 100%)" d="M 36.109375 23.996094 L 25.496094 12.363281 C 25.34375 12.203125 25.089844 12.1875 24.925781 12.335938 C 24.761719 12.484375 24.75 12.738281 24.898438 12.902344 L 35.511719 24.53125 C 36.296875 25.390625 36.230469 26.726562 35.363281 27.503906 C 34.945312 27.886719 34.398438 28.078125 33.832031 28.050781 C 33.261719 28.023438 32.738281 27.777344 32.355469 27.359375 L 21.34375 15.257812 C 20.542969 14.378906 20.09375 13.253906 20.074219 12.09375 C 20.074219 12.0625 20.074219 12.027344 20.074219 11.996094 C 20.074219 9.191406 22.371094 6.914062 25.195312 6.914062 C 28.019531 6.914062 30.320312 9.191406 30.320312 11.996094 C 30.320312 12.214844 30.5 12.394531 30.722656 12.394531 C 30.945312 12.394531 31.125 12.214844 31.125 11.996094 C 31.125 8.753906 28.464844 6.113281 25.195312 6.113281 C 21.925781 6.113281 19.265625 8.753906 19.265625 11.996094 C 19.265625 12.03125 19.269531 12.070312 19.269531 12.109375 C 19.289062 13.460938 19.816406 14.769531 20.746094 15.792969 L 31.757812 27.894531 C 32.285156 28.472656 33.007812 28.808594 33.789062 28.847656 C 33.839844 28.851562 33.890625 28.851562 33.9375 28.851562 C 34.667969 28.851562 35.363281 28.585938 35.90625 28.097656 C 37.097656 27.019531 37.191406 25.179688 36.109375 23.996094 Z M 31.125 33.085938 C 31.125 33.125 31.125 33.160156 31.125 33.199219 C 31.125 36.441406 28.464844 39.078125 25.195312 39.078125 C 21.925781 39.078125 19.265625 36.441406 19.265625 33.199219 C 19.265625 32.980469 19.449219 32.800781 19.671875 32.800781 C 19.890625 32.800781 20.074219 32.980469 20.074219 33.199219 C 20.074219 36 22.371094 38.28125 25.195312 38.28125 C 28.019531 38.28125 30.320312 36 30.320312 33.199219 C 30.320312 33.167969 30.320312 33.132812 30.316406 33.097656 C 30.300781 31.941406 29.847656 30.816406 29.046875 29.933594 L 18.035156 17.835938 C 17.652344 17.417969 17.128906 17.171875 16.5625 17.144531 C 15.992188 17.117188 15.449219 17.308594 15.027344 17.6875 C 14.160156 18.46875 14.09375 19.804688 14.878906 20.664062 L 25.496094 32.292969 C 25.644531 32.457031 25.628906 32.710938 25.464844 32.859375 C 25.300781 33.003906 25.046875 32.992188 24.898438 32.828125 L 14.285156 21.199219 C 13.203125 20.015625 13.292969 18.175781 14.484375 17.097656 C 15.066406 16.574219 15.816406 16.308594 16.601562 16.347656 C 17.386719 16.382812 18.105469 16.722656 18.632812 17.300781 L 29.644531 29.402344 C 30.574219 30.425781 31.101562 31.734375 31.125 33.085938 " fill-opacity="1" fill-rule="nonzero"/></g><g fill="rgb(100%, 100%, 100%)" fill-opacity="1"><g transform="translate(48.701428, 22.179731)"><g><path d="M 2.453125 0.046875 C 1.816406 0.046875 1.289062 -0.0976562 0.875 -0.390625 C 0.46875 -0.691406 0.242188 -1.128906 0.203125 -1.703125 L 1.984375 -1.703125 C 2.003906 -1.398438 2.140625 -1.25 2.390625 -1.25 C 2.472656 -1.25 2.546875 -1.269531 2.609375 -1.3125 C 2.671875 -1.351562 2.703125 -1.414062 2.703125 -1.5 C 2.703125 -1.625 2.632812 -1.722656 2.5 -1.796875 C 2.363281 -1.878906 2.15625 -1.972656 1.875 -2.078125 C 1.53125 -2.191406 1.25 -2.304688 1.03125 -2.421875 C 0.8125 -2.546875 0.617188 -2.71875 0.453125 -2.9375 C 0.296875 -3.15625 0.21875 -3.4375 0.21875 -3.78125 C 0.21875 -4.125 0.304688 -4.414062 0.484375 -4.65625 C 0.660156 -4.90625 0.90625 -5.09375 1.21875 -5.21875 C 1.53125 -5.34375 1.875 -5.40625 2.25 -5.40625 C 2.90625 -5.40625 3.421875 -5.253906 3.796875 -4.953125 C 4.179688 -4.648438 4.382812 -4.226562 4.40625 -3.6875 L 2.625 -3.6875 C 2.613281 -3.832031 2.570312 -3.9375 2.5 -4 C 2.4375 -4.070312 2.351562 -4.109375 2.25 -4.109375 C 2.175781 -4.109375 2.117188 -4.082031 2.078125 -4.03125 C 2.035156 -3.976562 2.015625 -3.910156 2.015625 -3.828125 C 2.015625 -3.710938 2.078125 -3.613281 2.203125 -3.53125 C 2.335938 -3.457031 2.550781 -3.363281 2.84375 -3.25 C 3.175781 -3.125 3.453125 -3.003906 3.671875 -2.890625 C 3.890625 -2.773438 4.078125 -2.613281 4.234375 -2.40625 C 4.398438 -2.207031 4.484375 -1.953125 4.484375 -1.640625 C 4.484375 -1.316406 4.398438 -1.023438 4.234375 -0.765625 C 4.078125 -0.503906 3.84375 -0.300781 3.53125 -0.15625 C 3.226562 -0.0195312 2.867188 0.046875 2.453125 0.046875 Z M 2.453125 0.046875 "/></g></g></g><g fill="rgb(100%, 100%, 100%)" fill-opacity="1"><g transform="translate(53.388247, 22.179731)"><g><path d="M 4.546875 -5.3125 L 4.546875 -3.984375 L 3.140625 -3.984375 L 3.140625 0 L 1.46875 0 L 1.46875 -3.984375 L 0.078125 -3.984375 L 0.078125 -5.3125 Z M 4.546875 -5.3125 "/></g></g></g><g fill="rgb(100%, 100%, 100%)" fill-opacity="1"><g transform="translate(58.007573, 22.179731)"><g><path d="M 3.046875 0 L 2.046875 -1.90625 L 2.046875 0 L 0.375 0 L 0.375 -5.3125 L 2.84375 -5.3125 C 3.28125 -5.3125 3.648438 -5.234375 3.953125 -5.078125 C 4.253906 -4.929688 4.484375 -4.722656 4.640625 -4.453125 C 4.796875 -4.191406 4.875 -3.894531 4.875 -3.5625 C 4.875 -3.207031 4.773438 -2.894531 4.578125 -2.625 C 4.378906 -2.351562 4.09375 -2.15625 3.71875 -2.03125 L 4.875 0 Z M 2.046875 -3.015625 L 2.703125 -3.015625 C 2.859375 -3.015625 2.976562 -3.050781 3.0625 -3.125 C 3.144531 -3.195312 3.1875 -3.3125 3.1875 -3.46875 C 3.1875 -3.601562 3.144531 -3.710938 3.0625 -3.796875 C 2.976562 -3.878906 2.859375 -3.921875 2.703125 -3.921875 L 2.046875 -3.921875 Z M 2.046875 -3.015625 "/></g></g></g><g fill="rgb(100%, 100%, 100%)" fill-opacity="1"><g transform="translate(63.031842, 22.179731)"><g><path d="M 2.96875 0.046875 C 2.46875 0.046875 2.003906 -0.0664062 1.578125 -0.296875 C 1.160156 -0.535156 0.828125 -0.859375 0.578125 -1.265625 C 0.335938 -1.679688 0.21875 -2.148438 0.21875 -2.671875 C 0.21875 -3.191406 0.335938 -3.660156 0.578125 -4.078125 C 0.828125 -4.492188 1.160156 -4.816406 1.578125 -5.046875 C 2.003906 -5.285156 2.46875 -5.40625 2.96875 -5.40625 C 3.46875 -5.40625 3.921875 -5.285156 4.328125 -5.046875 C 4.742188 -4.816406 5.070312 -4.492188 5.3125 -4.078125 C 5.5625 -3.660156 5.6875 -3.191406 5.6875 -2.671875 C 5.6875 -2.148438 5.5625 -1.679688 5.3125 -1.265625 C 5.070312 -0.859375 4.742188 -0.535156 4.328125 -0.296875 C 3.910156 -0.0664062 3.457031 0.046875 2.96875 0.046875 Z M 2.96875 -1.5 C 3.289062 -1.5 3.539062 -1.601562 3.71875 -1.8125 C 3.90625 -2.03125 4 -2.316406 4 -2.671875 C 4 -3.035156 3.90625 -3.320312 3.71875 -3.53125 C 3.539062 -3.75 3.289062 -3.859375 2.96875 -3.859375 C 2.625 -3.859375 2.363281 -3.75 2.1875 -3.53125 C 2.007812 -3.320312 1.921875 -3.035156 1.921875 -2.671875 C 1.921875 -2.316406 2.007812 -2.03125 2.1875 -1.8125 C 2.363281 -1.601562 2.625 -1.5 2.96875 -1.5 Z M 2.96875 -1.5 "/></g></g></g><g fill="rgb(100%, 100%, 100%)" fill-opacity="1"><g transform="translate(68.940981, 22.179731)"><g><path d="M 5.46875 0 L 3.796875 0 L 2.046875 -2.671875 L 2.046875 0 L 0.375 0 L 0.375 -5.3125 L 2.046875 -5.3125 L 3.796875 -2.59375 L 3.796875 -5.3125 L 5.46875 -5.3125 Z M 5.46875 0 "/></g></g></g><g fill="rgb(100%, 100%, 100%)" fill-opacity="1"><g transform="translate(74.782631, 22.179731)"><g><path d="M 3.625 -3.5 C 3.5625 -3.601562 3.46875 -3.679688 3.34375 -3.734375 C 3.226562 -3.796875 3.085938 -3.828125 2.921875 -3.828125 C 2.597656 -3.828125 2.347656 -3.722656 2.171875 -3.515625 C 1.992188 -3.304688 1.90625 -3.019531 1.90625 -2.65625 C 1.90625 -2.25 2.003906 -1.941406 2.203125 -1.734375 C 2.398438 -1.523438 2.703125 -1.421875 3.109375 -1.421875 C 3.492188 -1.421875 3.800781 -1.578125 4.03125 -1.890625 L 2.703125 -1.890625 L 2.703125 -3.0625 L 5.421875 -3.0625 L 5.421875 -1.40625 C 5.179688 -1.007812 4.859375 -0.671875 4.453125 -0.390625 C 4.054688 -0.109375 3.546875 0.03125 2.921875 0.03125 C 2.367188 0.03125 1.890625 -0.078125 1.484375 -0.296875 C 1.078125 -0.523438 0.765625 -0.84375 0.546875 -1.25 C 0.328125 -1.664062 0.21875 -2.132812 0.21875 -2.65625 C 0.21875 -3.1875 0.328125 -3.65625 0.546875 -4.0625 C 0.765625 -4.476562 1.078125 -4.796875 1.484375 -5.015625 C 1.890625 -5.242188 2.363281 -5.359375 2.90625 -5.359375 C 3.601562 -5.359375 4.171875 -5.191406 4.609375 -4.859375 C 5.046875 -4.523438 5.304688 -4.070312 5.390625 -3.5 Z M 3.625 -3.5 "/></g></g></g><g fill="rgb(100%, 100%, 100%)" fill-opacity="1"><g transform="translate(80.421811, 22.179731)"><g/></g></g><g fill="rgb(100%, 100%, 100%)" fill-opacity="1"><g transform="translate(81.696626, 22.179731)"><g><path d="M 8.03125 -5.3125 L 6.8125 0 L 4.734375 0 L 4.125 -3.015625 L 3.515625 0 L 1.4375 0 L 0.21875 -5.3125 L 2.015625 -5.3125 L 2.5 -1.96875 L 3.21875 -5.3125 L 5.03125 -5.3125 L 5.75 -1.96875 L 6.234375 -5.3125 Z M 8.03125 -5.3125 "/></g></g></g><g fill="rgb(100%, 100%, 100%)" fill-opacity="1"><g transform="translate(89.945425, 22.179731)"><g><path d="M 2.046875 -3.984375 L 2.046875 -3.328125 L 3.6875 -3.328125 L 3.6875 -2.078125 L 2.046875 -2.078125 L 2.046875 -1.328125 L 3.921875 -1.328125 L 3.921875 0 L 0.375 0 L 0.375 -5.3125 L 3.921875 -5.3125 L 3.921875 -3.984375 Z M 2.046875 -3.984375 "/></g></g></g><g fill="rgb(100%, 100%, 100%)" fill-opacity="1"><g transform="translate(94.114818, 22.179731)"><g><path d="M 3.78125 -0.796875 L 2.015625 -0.796875 L 1.75 0 L 0 0 L 1.9375 -5.3125 L 3.859375 -5.3125 L 5.796875 0 L 4.046875 0 Z M 3.375 -2.0625 L 2.890625 -3.53125 L 2.421875 -2.0625 Z M 3.375 -2.0625 "/></g></g></g><g fill="rgb(100%, 100%, 100%)" fill-opacity="1"><g transform="translate(99.911474, 22.179731)"><g><path d="M 2.046875 -1.265625 L 3.640625 -1.265625 L 3.640625 0 L 0.375 0 L 0.375 -5.3125 L 2.046875 -5.3125 Z M 2.046875 -1.265625 "/></g></g></g><g fill="rgb(100%, 100%, 100%)" fill-opacity="1"><g transform="translate(103.705921, 22.179731)"><g><path d="M 4.546875 -5.3125 L 4.546875 -3.984375 L 3.140625 -3.984375 L 3.140625 0 L 1.46875 0 L 1.46875 -3.984375 L 0.078125 -3.984375 L 0.078125 -5.3125 Z M 4.546875 -5.3125 "/></g></g></g><g fill="rgb(100%, 100%, 100%)" fill-opacity="1"><g transform="translate(108.325247, 22.179731)"><g><path d="M 5.28125 -5.3125 L 5.28125 0 L 3.625 0 L 3.625 -2.0625 L 2.046875 -2.0625 L 2.046875 0 L 0.375 0 L 0.375 -5.3125 L 2.046875 -5.3125 L 2.046875 -3.390625 L 3.625 -3.390625 L 3.625 -5.3125 Z M 5.28125 -5.3125 "/></g></g></g><g fill="rgb(100%, 100%, 100%)" fill-opacity="1"><g transform="translate(61.198013, 28.663148)"><g><path d="M 4.03125 -3.46875 L 4.03125 0 L 3.46875 0 L 3.46875 -2.375 L 2.40625 0 L 2.015625 0 L 0.9375 -2.375 L 0.9375 0 L 0.375 0 L 0.375 -3.46875 L 0.984375 -3.46875 L 2.203125 -0.75 L 3.421875 -3.46875 Z M 4.03125 -3.46875 "/></g></g></g><g fill="rgb(100%, 100%, 100%)" fill-opacity="1"><g transform="translate(66.606153, 28.663148)"><g><path d="M 2.46875 -0.703125 L 1.015625 -0.703125 L 0.765625 0 L 0.171875 0 L 1.421875 -3.484375 L 2.078125 -3.484375 L 3.3125 0 L 2.71875 0 Z M 2.3125 -1.171875 L 1.75 -2.796875 L 1.171875 -1.171875 Z M 2.3125 -1.171875 "/></g></g></g><g fill="rgb(100%, 100%, 100%)" fill-opacity="1"><g transform="translate(71.089653, 28.663148)"><g><path d="M 3.234375 0 L 2.65625 0 L 0.9375 -2.59375 L 0.9375 0 L 0.375 0 L 0.375 -3.484375 L 0.9375 -3.484375 L 2.65625 -0.890625 L 2.65625 -3.484375 L 3.234375 -3.484375 Z M 3.234375 0 "/></g></g></g><g fill="rgb(100%, 100%, 100%)" fill-opacity="1"><g transform="translate(75.693105, 28.663148)"><g><path d="M 2.46875 -0.703125 L 1.015625 -0.703125 L 0.765625 0 L 0.171875 0 L 1.421875 -3.484375 L 2.078125 -3.484375 L 3.3125 0 L 2.71875 0 Z M 2.3125 -1.171875 L 1.75 -2.796875 L 1.171875 -1.171875 Z M 2.3125 -1.171875 "/></g></g></g><g fill="rgb(100%, 100%, 100%)" fill-opacity="1"><g transform="translate(80.176606, 28.663148)"><g><path d="M 2.890625 -2.46875 C 2.796875 -2.644531 2.671875 -2.773438 2.515625 -2.859375 C 2.359375 -2.953125 2.171875 -3 1.953125 -3 C 1.722656 -3 1.519531 -2.945312 1.34375 -2.84375 C 1.164062 -2.738281 1.023438 -2.59375 0.921875 -2.40625 C 0.816406 -2.21875 0.765625 -2 0.765625 -1.75 C 0.765625 -1.5 0.816406 -1.273438 0.921875 -1.078125 C 1.023438 -0.890625 1.164062 -0.742188 1.34375 -0.640625 C 1.519531 -0.535156 1.722656 -0.484375 1.953125 -0.484375 C 2.265625 -0.484375 2.515625 -0.566406 2.703125 -0.734375 C 2.898438 -0.910156 3.019531 -1.148438 3.0625 -1.453125 L 1.765625 -1.453125 L 1.765625 -1.90625 L 3.6875 -1.90625 L 3.6875 -1.453125 C 3.644531 -1.191406 3.546875 -0.945312 3.390625 -0.71875 C 3.234375 -0.488281 3.03125 -0.304688 2.78125 -0.171875 C 2.539062 -0.0351562 2.265625 0.03125 1.953125 0.03125 C 1.628906 0.03125 1.332031 -0.0390625 1.0625 -0.1875 C 0.789062 -0.34375 0.578125 -0.554688 0.421875 -0.828125 C 0.265625 -1.097656 0.1875 -1.40625 0.1875 -1.75 C 0.1875 -2.082031 0.265625 -2.382812 0.421875 -2.65625 C 0.578125 -2.925781 0.789062 -3.132812 1.0625 -3.28125 C 1.332031 -3.4375 1.628906 -3.515625 1.953125 -3.515625 C 2.328125 -3.515625 2.65625 -3.421875 2.9375 -3.234375 C 3.226562 -3.054688 3.441406 -2.800781 3.578125 -2.46875 Z M 2.890625 -2.46875 "/></g></g></g><g fill="rgb(100%, 100%, 100%)" fill-opacity="1"><g transform="translate(85.039959, 28.663148)"><g><path d="M 4.03125 -3.46875 L 4.03125 0 L 3.46875 0 L 3.46875 -2.375 L 2.40625 0 L 2.015625 0 L 0.9375 -2.375 L 0.9375 0 L 0.375 0 L 0.375 -3.46875 L 0.984375 -3.46875 L 2.203125 -0.75 L 3.421875 -3.46875 Z M 4.03125 -3.46875 "/></g></g></g><g fill="rgb(100%, 100%, 100%)" fill-opacity="1"><g transform="translate(90.448099, 28.663148)"><g><path d="M 0.9375 -3.015625 L 0.9375 -2 L 2.140625 -2 L 2.140625 -1.53125 L 0.9375 -1.53125 L 0.9375 -0.46875 L 2.296875 -0.46875 L 2.296875 0 L 0.375 0 L 0.375 -3.484375 L 2.296875 -3.484375 L 2.296875 -3.015625 Z M 0.9375 -3.015625 "/></g></g></g><g fill="rgb(100%, 100%, 100%)" fill-opacity="1"><g transform="translate(94.066934, 28.663148)"><g><path d="M 3.234375 0 L 2.65625 0 L 0.9375 -2.59375 L 0.9375 0 L 0.375 0 L 0.375 -3.484375 L 0.9375 -3.484375 L 2.65625 -0.890625 L 2.65625 -3.484375 L 3.234375 -3.484375 Z M 3.234375 0 "/></g></g></g><g fill="rgb(100%, 100%, 100%)" fill-opacity="1"><g transform="translate(98.670387, 28.663148)"><g><path d="M 2.625 -3.46875 L 2.625 -3.015625 L 1.6875 -3.015625 L 1.6875 0 L 1.125 0 L 1.125 -3.015625 L 0.1875 -3.015625 L 0.1875 -3.46875 Z M 2.625 -3.46875 "/></g></g></g></svg>